<svg xmlns="http://www.w3.org/2000/svg" width="2235" height="252" viewBox="0 0 2235 252" fill="none"><path d="M223.224 162.055L0.26123 251.289L257.752 251.194L432.951 162.28L223.224 162.055Z" fill="#F1F1F1"></path><path d="M637.384 162.055L504.763 251.289L749.348 251.194L837.79 162.28L637.384 162.055Z" fill="#F1F1F1"></path><path d="M891.79 106.25L836.605 162.056L1024.41 161.996L1041.67 106.391L891.79 106.25Z" fill="#F1F1F1"></path><path d="M542.627 106.25L432.951 162.056L636.2 161.996L717.938 106.391L542.627 106.25Z" fill="#F1F1F1"></path><path d="M2011.12 162.055L2234.08 251.289L1976.59 251.194L1801.39 162.28L2011.12 162.055Z" fill="#F1F1F1"></path><path d="M1596.96 162.055L1729.58 251.289L1485 251.194L1396.55 162.28L1596.96 162.055Z" fill="#F1F1F1"></path><path d="M1342.56 106.25L1397.74 162.056L1209.94 161.996L1192.68 106.391L1342.56 106.25Z" fill="#F1F1F1"></path><path d="M1691.72 106.25L1801.39 162.056L1598.14 161.996L1516.41 106.391L1691.72 106.25Z" fill="#F1F1F1"></path><path d="M1024.17 162.055L995.318 251.289L1239.13 251.194L1210.71 162.28L1024.17 162.055Z" fill="#F1F1F1"></path></svg>