<svg xmlns="http://www.w3.org/2000/svg" width="2235" height="252" viewBox="0 0 2235 252" fill="none"><path d="M684.633 34.6992L626.134 64.1393L780.145 64.1083L823.401 34.6992H684.633Z" fill="#F1F1F1"></path><path d="M989.804 5.63672L979.08 16.5515H1070.18L1074.05 5.63803L989.804 5.63672Z" fill="#F1F1F1"></path><path d="M223.224 162.055L0.26123 251.289L257.752 251.194L432.951 162.28L223.224 162.055Z" fill="#F1F1F1"></path><path d="M637.384 162.055L504.763 251.289L749.348 251.194L837.79 162.28L637.384 162.055Z" fill="#F1F1F1"></path><path d="M891.79 106.25L836.605 162.056L1024.41 161.996L1041.67 106.391L891.79 106.25Z" fill="#F1F1F1"></path><path d="M542.627 106.25L432.951 162.056L636.2 161.996L717.938 106.391L542.627 106.25Z" fill="#F1F1F1"></path><path d="M464.72 64.1387L360.162 106.249L541.967 106.205L625.119 64.1387H464.72Z" fill="#F1F1F1"></path><path d="M780.132 64.1387L717.599 106.249L891.518 106.205L932.367 64.1387H780.132Z" fill="#F1F1F1"></path><path d="M850.319 16.5527L824.388 34.6655L961.523 34.3168L979.326 16.5548L850.319 16.5527Z" fill="#F1F1F1"></path><path d="M584.514 16.3262L539.728 34.6651L684.412 34.3164L719.685 16.5545L584.514 16.3262Z" fill="#F1F1F1"></path><path d="M961.921 34.666L932.683 64.0027L1055.06 64.1397L1064.33 34.6695L961.921 34.666Z" fill="#F1F1F1"></path><path d="M742.314 5.22852L719.968 16.5518L850.65 16.3338L867.018 5.22983L742.314 5.22852Z" fill="#F1F1F1"></path><path d="M1549.71 34.6992L1608.21 64.1393L1454.2 64.1083L1410.94 34.6992H1549.71Z" fill="#F1F1F1"></path><path d="M1244.54 5.63672L1255.27 16.5515H1164.17L1160.3 5.63803L1244.54 5.63672Z" fill="#F1F1F1"></path><path d="M2011.12 162.055L2234.08 251.289L1976.59 251.194L1801.39 162.28L2011.12 162.055Z" fill="#F1F1F1"></path><path d="M1596.96 162.055L1729.58 251.289L1485 251.194L1396.55 162.28L1596.96 162.055Z" fill="#F1F1F1"></path><path d="M1342.56 106.25L1397.74 162.056L1209.94 161.996L1192.68 106.391L1342.56 106.25Z" fill="#F1F1F1"></path><path d="M1691.72 106.25L1801.39 162.056L1598.14 161.996L1516.41 106.391L1691.72 106.25Z" fill="#F1F1F1"></path><path d="M1769.63 64.1387L1874.18 106.249L1692.38 106.205L1609.23 64.1387H1769.63Z" fill="#F1F1F1"></path><path d="M1454.21 64.1387L1516.75 106.249L1342.83 106.205L1301.98 64.1387H1454.21Z" fill="#F1F1F1"></path><path d="M1384.03 16.5527L1409.96 34.6655L1272.82 34.3168L1255.02 16.5548L1384.03 16.5527Z" fill="#F1F1F1"></path><path d="M1649.83 16.3262L1694.62 34.6651L1549.93 34.3164L1514.66 16.5545L1649.83 16.3262Z" fill="#F1F1F1"></path><path d="M1272.42 34.666L1301.66 64.0027L1179.28 64.1397L1170.01 34.6695L1272.42 34.666Z" fill="#F1F1F1"></path><path d="M1492.03 5.22852L1514.38 16.5518L1383.69 16.3338L1367.33 5.22983L1492.03 5.22852Z" fill="#F1F1F1"></path><path d="M1024.17 162.055L995.318 251.289L1239.13 251.194L1210.71 162.28L1024.17 162.055Z" fill="#F1F1F1"></path><path d="M1055.01 64.6719L1041.76 106.25L1192.69 106.206L1179.38 64.7382L1055.01 64.6719Z" fill="#F1F1F1"></path><path d="M1070.08 16.3887L1064.33 34.6655L1170.12 34.6463L1164.12 16.3887H1070.08Z" fill="#F1F1F1"></path></svg>