<svg width="150" height="44" viewBox="0 0 150 44" fill="none" xmlns="http://www.w3.org/2000/svg">
<g clip-path="url(#clip0_3_1389)">
<path d="M16.3081 30.25C14.1279 30.25 11.782 31.593 11.782 34.5494C11.782 38.6831 15.2355 39.0058 16.2907 39.0058C17.3547 39.0058 20.8081 38.6831 20.8081 34.5494C20.8169 31.593 18.4797 30.25 16.3081 30.25ZM16.3081 37.4447C15.0959 37.4447 13.6744 36.6947 13.6744 34.5581C13.6744 32.9273 14.7297 31.8372 16.2907 31.8372C17.8605 31.8372 18.9244 32.9273 18.9244 34.5581C18.9244 36.6947 17.5116 37.4447 16.3081 37.4447ZM24.2965 38.8488H26.093V31.9069H28.9273V30.4157H21.4622V31.9069H24.2965V38.8488ZM34.2122 30.25C32.032 30.25 29.6948 31.593 29.6948 34.5494C29.6948 38.6831 33.1483 39.0058 34.2035 39.0058C35.2674 39.0058 38.7297 38.6831 38.7297 34.5494C38.7209 31.593 36.3837 30.25 34.2122 30.25ZM34.2122 37.4447C33 37.4447 31.5785 36.6947 31.5785 34.5581C31.5785 32.6744 32.8953 31.8372 34.1948 31.8372C35.7733 31.8372 36.8285 32.9273 36.8285 34.5581C36.8285 36.6947 35.4244 37.4447 34.2122 37.4447ZM45.5843 35.6657C46.7791 35.3779 47.5814 34.3837 47.5814 33.1802C47.5814 30.8866 45.6977 30.4069 44.1192 30.4069H40.1948V38.8401H41.9913V36.0668H43.561L45.5756 38.8401H47.8169L45.3924 35.7093L45.5843 35.6657ZM43.7529 34.5843H42.0174V31.9069H43.7093C45.0349 31.9069 45.6802 32.3255 45.6802 33.1889C45.689 34.1221 45.0523 34.5843 43.7529 34.5843ZM58.2035 37.4447C56.2762 37.4447 55.0814 36.3633 55.0814 34.6191C55.0814 32.8052 56.2151 31.811 58.282 31.811C59.25 31.811 59.9564 31.9767 60.5669 32.1598V30.5901C59.7645 30.3546 58.7616 30.25 58.1163 30.25C55.8488 30.25 53.1977 31.3924 53.1977 34.6279C53.1977 37.4098 54.9855 39.0058 58.0901 39.0058C58.8314 39.0058 59.7558 38.9098 60.5843 38.7354V37.061C60.061 37.218 59.2064 37.436 58.2471 37.4447H58.2035ZM66.4186 30.25C64.2384 30.25 61.8924 31.593 61.8924 34.5494C61.8924 38.6831 65.3459 39.0058 66.4012 39.0058C67.4651 39.0058 70.9273 38.6831 70.9273 34.5494C70.9273 31.593 68.5901 30.25 66.4186 30.25ZM66.4186 37.4447C65.2064 37.4447 63.7849 36.6947 63.7849 34.5581C63.7849 32.6744 65.1017 31.8372 66.4012 31.8372C67.9797 31.8372 69.0349 32.9273 69.0349 34.5581C69.0349 36.6947 67.6221 37.4447 66.4186 37.4447ZM78.0262 35.6657C79.2209 35.3779 80.0233 34.3837 80.0233 33.1802C80.0233 30.8866 78.1395 30.4069 76.561 30.4069H72.6366V38.8401H74.4331V36.0668H76.0029L78.0174 38.8401H80.2587L77.8343 35.7093L78.0262 35.6657ZM76.2035 34.5843H74.468V31.9069H76.1599C77.4855 31.9069 78.1308 32.3255 78.1308 33.1889C78.1308 34.1221 77.5029 34.5843 76.2035 34.5843ZM85.8576 30.4157H81.9855V38.8488H83.782V36.4505H85.8663C87.6279 36.4505 89.5029 35.6569 89.5029 33.4244C89.5029 31.3924 88.3169 30.4157 85.8576 30.4157ZM85.6831 34.9593H83.782V31.9069H85.6483C86.564 31.9069 87.6192 32.0726 87.6192 33.3721C87.6105 34.7674 86.6424 34.9593 85.6831 34.9593ZM95.2326 30.25C93.0523 30.25 90.7064 31.593 90.7064 34.5494C90.7064 38.6831 94.1599 39.0058 95.2151 39.0058C96.2791 39.0058 99.7413 38.6831 99.7413 34.5494C99.7413 31.593 97.4041 30.25 95.2326 30.25ZM95.2326 37.4447C94.0203 37.4447 92.5988 36.6947 92.5988 34.5581C92.5988 32.9273 93.6541 31.8372 95.2151 31.8372C96.7849 31.8372 97.8488 32.9273 97.8488 34.5581C97.8576 36.6947 96.4448 37.4447 95.2326 37.4447ZM106.849 35.6657C108.044 35.3779 108.846 34.3837 108.846 33.1802C108.846 30.8866 106.962 30.4069 105.384 30.4069H101.459V38.8401H103.256V36.0668H104.826L106.84 38.8401H109.081L106.657 35.7093L106.849 35.6657ZM105.026 34.5843H103.291V31.9069H104.983C106.308 31.9069 106.953 32.3255 106.953 33.1889C106.953 34.1221 106.326 34.5843 105.026 34.5843ZM113.189 30.4157L110.023 38.8488H111.811L112.378 37.2703H116.616L117.122 38.8488H119.11L115.884 30.4157H113.189ZM112.892 35.7703L114.462 31.6279L116.093 35.7703H112.892ZM121.465 38.8488H123.262V31.9069H126.096V30.4157H118.631V31.9069H121.465V38.8488ZM127.858 30.4157H129.654V38.8488H127.858V30.4157ZM135.985 30.25C133.805 30.25 131.468 31.593 131.468 34.5494C131.468 38.6831 134.922 39.0058 135.977 39.0058C137.041 39.0058 140.503 38.6831 140.503 34.5494C140.494 31.593 138.157 30.25 135.985 30.25ZM135.985 37.4447C134.773 37.4447 133.352 36.6947 133.352 34.5581C133.352 32.6744 134.669 31.8372 135.968 31.8372C137.538 31.8372 138.602 32.9273 138.602 34.5581C138.602 36.6947 137.189 37.4447 135.985 37.4447ZM148.238 36.154L144.366 30.4244H142.186V38.8488H143.948V32.7005L148.151 38.8488H150V30.4244H148.238V36.154ZM1.84884 30.4157H0V38.8488H1.79651V33.6773L4.5 38.8488H5.75581L8.46802 33.6773V38.8488H10.2645V30.4157H8.4157L5.12791 36.529L1.84884 30.4157ZM87.0785 11.8662H76.875C76.4128 11.8662 75.8983 11.8314 75.6541 11.7616C74.7471 11.5174 74.3198 10.7238 74.3198 9.91275C74.3198 9.21507 74.7035 8.36914 75.6715 8.07263C75.9593 7.98542 76.2384 7.9767 76.8314 7.9767H91.3081V4.99414H76.5959C76.0204 4.99414 75.5494 5.01158 75.1395 5.07263C72.7587 5.40402 71.032 7.3924 71.032 9.92147C71.032 12.1802 72.4884 14.4127 75.0785 14.7965C75.6453 14.8837 76.5087 14.8662 76.7442 14.8662H86.6337C86.7733 14.8662 87.2703 14.875 87.4012 14.8924C88.5785 15.0581 89.189 15.9651 89.189 16.9767C89.189 17.8314 88.6657 18.8081 87.5058 19.0174C87.3576 19.0436 86.8343 19.061 86.6599 19.061H71.5291V22.0784H86.8953C87.0785 22.0784 87.9331 22.0697 88.1076 22.0523C90.9767 21.7907 92.4767 19.4447 92.4767 16.9593C92.4767 14.7703 91.1163 12.2064 88.343 11.9273C87.7587 11.8575 87.2791 11.8662 87.0785 11.8662ZM57.8721 11.8662H47.6686C47.2064 11.8662 46.6919 11.8314 46.4477 11.7616C45.5407 11.5174 45.1134 10.7238 45.1134 9.91275C45.1134 9.21507 45.4971 8.36914 46.4651 8.07263C46.7529 7.98542 47.032 7.9767 47.625 7.9767H62.1017V4.99414H47.3895C46.814 4.99414 46.343 5.01158 45.9331 5.07263C43.5523 5.40402 41.8256 7.3924 41.8256 9.92147C41.8256 12.1802 43.282 14.4127 45.8721 14.7965C46.439 14.8837 47.3023 14.8662 47.5378 14.8662H57.4273C57.5669 14.8662 58.064 14.875 58.1948 14.8924C59.3721 15.0581 59.9826 15.9651 59.9826 16.9767C59.9826 17.8314 59.4593 18.8081 58.2994 19.0174C58.1512 19.0436 57.6279 19.061 57.4535 19.061H42.3227V22.0784H57.689C57.8721 22.0784 58.7267 22.0697 58.9012 22.0523C61.7703 21.7907 63.2704 19.4447 63.2704 16.9593C63.2704 14.7703 61.9012 12.2064 59.1366 11.9273C58.5523 11.8575 58.0727 11.8662 57.8721 11.8662ZM30.375 4.99414H33.6279V22.0697H30.375V4.99414ZM17.9215 18.6424L4.55233 4.99414H0V22.0697H3.25291V8.33426L16.718 22.0697H21.1744V4.99414H17.9215V18.6424ZM146.738 18.6424L133.369 4.99414H128.817V22.0697H132.07V8.33426L145.535 22.0697H149.991V4.99414H146.738V18.6424ZM108.462 4.99414L97.9099 22.0697H101.878L103.823 18.9127H116.93L118.875 22.0697H122.843L112.299 4.99414H108.462ZM105.436 16.1918L110.381 8.16856L115.317 16.1918H105.436Z" fill="white"/>
</g>
<defs>
<clipPath id="clip0_3_1389">
<rect width="150" height="43.62" fill="white" transform="translate(0 0.189941)"/>
</clipPath>
</defs>
</svg>
