<svg width="150" height="36" viewBox="0 0 150 36" fill="none" xmlns="http://www.w3.org/2000/svg">
<g clip-path="url(#clip0_3_1392)">
<path d="M149.958 16.5325V17.2723C149.958 17.2723 149.152 17.591 149.152 18.5413L149.158 34.4136C149.158 34.9729 148.707 35.43 148.148 35.43H145.027L138.164 24.5979C138.164 24.5979 138.308 25.4941 138.308 26.6248V35.43H134.507V16.5325H136.973C138.23 16.5325 139.144 17.0497 139.806 18.0902C140.365 18.9683 145.55 27.136 145.55 27.136C145.55 27.136 145.363 26.5827 145.363 25.0911V16.5325H149.958ZM76.9545 16.5325V34.4136C76.9545 34.9729 76.4974 35.43 75.938 35.43H72.8225L65.96 24.5979C65.96 24.5979 66.1043 25.4941 66.1043 26.6248V35.43H62.2972V16.5325H64.7571C66.0141 16.5325 66.9283 17.0497 67.5899 18.0902C68.1493 18.9683 73.3398 27.136 73.3398 27.136C73.3398 27.136 73.1533 26.5827 73.1533 25.0911V16.5325H76.9545ZM29.9272 16.5325H24.8449V23.7739H20.4002V16.5325H14.5V17.2723C14.5 17.2723 15.3059 17.579 15.3059 18.5413V35.43H20.4002V27.2323H24.8449V35.43H29.9272V16.5325ZM46.3828 16.5325H35.0635V33.7399C35.0635 34.7203 35.9958 35.43 36.9701 35.43H46.3828C46.9422 35.43 47.3993 34.9729 47.3993 34.4136V31.9777H40.9036C40.4826 31.9777 40.1398 31.6288 40.1398 31.2078V27.2323H45.9257V23.7799H40.1398V19.9908H47.3933V17.5549C47.3993 16.9896 46.9422 16.5325 46.3828 16.5325ZM57.1127 16.5325H52.0304V34.4136C52.0304 34.9729 52.4875 35.43 53.0469 35.43H57.1127V16.5325ZM129.178 16.5325H117.853V33.7399C117.853 34.6842 118.785 35.43 119.766 35.43H129.178C129.738 35.43 130.195 34.9729 130.195 34.4136V31.9777H123.699C123.278 31.9777 122.935 31.6288 122.935 31.2078V27.2323H128.727V23.7799H122.935V19.9908H130.201V17.5549C130.201 16.9896 129.738 16.5325 129.178 16.5325ZM93.4101 16.5325H82.0848V33.7399C82.0848 34.6842 83.0171 35.43 83.9975 35.43H93.4101C93.9695 35.43 94.4266 34.9729 94.4266 34.4136V31.9777H87.9309C87.5099 31.9777 87.1671 31.6288 87.1671 31.2078V27.2323H92.959V23.7799H87.1671V19.9908H94.4266V17.5549C94.4266 16.9896 93.9695 16.5325 93.4101 16.5325ZM114.918 16.5325H111.249C110.365 16.5325 109.691 16.755 108.988 17.5609C108.29 18.3669 103.809 23.5273 103.809 23.5273V16.5325H98.7269V34.4136C98.7269 34.9729 99.184 35.43 99.7434 35.43H103.809V26.8654C103.809 26.8654 107.622 32.8257 108.29 33.8723C108.958 34.9188 109.625 35.436 111.147 35.436H115.321L108.188 24.2852L114.918 16.5325Z" fill="white"/>
<path d="M5.02755 23.413C4.77494 23.5995 4.43813 23.3589 4.53436 23.0642C4.6727 22.6432 7.22886 14.7762 7.22886 14.7762L0.179872 9.65186C-0.0727364 9.46541 0.0595824 9.07446 0.366322 9.08048H9.07531C9.07531 9.08048 11.6375 1.21352 11.7698 0.792508C11.866 0.497797 12.281 0.491783 12.3773 0.792508C12.5096 1.21352 15.0718 9.07446 15.0718 9.07446H23.7807C24.0875 9.07446 24.2258 9.45939 23.9672 9.64584L19.7631 12.7012H14.7891L13.2494 7.97381L11.7157 12.7072H6.74168L10.7654 15.6303L9.22567 20.3577C9.22567 20.3637 5.28016 23.2266 5.02755 23.413Z" fill="white"/>
</g>
<defs>
<clipPath id="clip0_3_1392">
<rect width="150" height="34.86" fill="white" transform="translate(0 0.569946)"/>
</clipPath>
</defs>
</svg>
