<svg width="150" height="50" viewBox="0 0 150 50" fill="none" xmlns="http://www.w3.org/2000/svg">
<path fill-rule="evenodd" clip-rule="evenodd" d="M13.8978 15.118C6.20244 15.118 0 21.3205 0 28.7857C0 36.2509 6.20244 42.4533 13.8978 42.4533C21.5931 42.4533 27.7947 36.2509 27.7947 28.7857C27.7947 21.3205 21.5931 15.118 13.8978 15.118ZM13.8978 40.9597C8.15473 40.9597 3.44598 35.4475 3.44598 28.6718C3.44598 21.7799 8.15553 16.267 13.8978 16.267C19.64 16.267 24.3495 21.7799 24.3495 28.6718C24.3495 35.4475 19.6408 40.9597 13.8978 40.9597Z" fill="white" fill-opacity="0.7"/>
<path fill-rule="evenodd" clip-rule="evenodd" d="M9.29688 39.5806C12.0533 32.5748 20.0934 37.8584 21.1269 41.7638C23.3093 48.4257 27.3293 49.6893 31.6933 45.5538C27.6733 53.2491 20.3227 49.229 18.5997 45.3253C16.3027 38.6634 13.891 35.2166 9.29688 39.5806Z" fill="white" fill-opacity="0.7"/>
<path fill-rule="evenodd" clip-rule="evenodd" d="M50.5352 10.2946V23.3881C50.5352 24.307 50.6507 24.7672 50.88 24.9965C51.1101 25.2258 51.6841 25.3404 52.3737 25.3404V25.8006C51.6841 26.0307 50.9954 26.2592 50.3059 26.604C49.5017 26.8341 48.6984 27.1789 47.7788 27.5228H47.5495V24.6509C46.6306 25.7998 45.7118 26.6032 44.9076 27.0634C43.9888 27.522 43.07 27.7521 41.9211 27.7521C40.7722 27.7521 39.7387 27.4074 38.9345 26.9472C38.1303 26.4886 37.4416 25.6836 36.9822 24.8802C36.7521 24.3062 36.6375 23.8459 36.5228 23.1572C36.4082 22.5832 36.4082 21.6643 36.4082 20.4008V12.5908C36.4082 11.9021 36.2927 11.5565 35.9488 11.3272C35.7194 11.2126 35.1446 11.0979 34.2266 10.9825V10.2938H39.3947V19.9414C39.3947 22.3531 39.624 23.9614 40.1981 24.7656C40.7722 25.5689 41.8056 25.9137 43.2993 25.9137C44.1027 25.9137 44.9068 25.6836 45.711 25.225C46.3997 24.6509 47.0892 23.9614 47.5487 22.9279V13.2803C47.5487 12.3615 47.4332 11.672 47.2039 11.4427C46.9738 11.0979 46.3997 10.9833 45.5956 10.9833H45.4809V10.2946H50.5352ZM56.1636 26.3747V21.6652H56.967C57.3117 23.5028 57.8858 24.7664 58.5753 25.5697C59.264 26.3747 60.0682 26.8333 61.2171 26.8333C62.2506 26.8333 63.0547 26.4886 63.7435 25.7998C64.3175 25.225 64.6623 24.4216 64.6623 23.3873C64.6623 22.584 64.4322 21.8945 63.9728 21.435C63.5134 20.861 62.5945 20.1715 61.2163 19.482C59.1486 18.4485 57.7703 17.6443 57.1963 16.9556C56.6222 16.2669 56.3929 15.3481 56.3929 14.4292C56.3929 13.051 56.967 11.9029 58.0004 11.0987C58.9193 10.2946 60.2975 9.83514 62.0205 9.83514C62.8246 9.83514 63.628 9.94979 64.4322 10.1799C65.2363 10.4092 66.0405 10.6393 66.8439 11.0987V15.2334H66.0405C65.8104 13.8552 65.3518 12.7071 64.5476 11.7882C63.7435 10.9841 62.8246 10.5247 61.6757 10.5247C60.8723 10.5247 60.1828 10.7548 59.608 11.2134C59.0339 11.6728 58.8038 12.3615 58.8038 13.051C58.8038 14.0845 59.608 15.118 61.2163 15.9221C61.331 16.0368 61.4464 16.0368 61.5611 16.1514C61.6757 16.2669 62.0205 16.3815 62.4799 16.6108C65.9251 18.4485 67.5334 20.2861 67.5334 22.2384C67.5334 23.8459 66.9593 25.225 65.6958 26.1438C64.5468 27.1773 62.9393 27.6359 60.9862 27.6359C60.0674 27.6359 59.3787 27.5212 58.459 27.4074C57.6565 27.1781 56.967 26.8333 56.1636 26.3747ZM72.7024 2.02517C72.7024 1.4511 72.9317 0.990891 73.2764 0.646935C73.7358 0.187525 74.1952 0.072876 74.7693 0.072876C75.3434 0.072876 75.8036 0.187525 76.2622 0.646935C76.6069 0.991693 76.837 1.4511 76.837 2.02517C76.837 2.59923 76.6069 3.05864 76.2622 3.51805C75.8036 3.86281 75.3434 4.09211 74.7693 4.09211C74.1952 4.09211 73.7358 3.862 73.3911 3.51805C72.9317 3.05864 72.7024 2.59923 72.7024 2.02517ZM76.6069 9.83514V24.3062C76.6069 25.225 76.7232 25.9137 76.9517 26.1438C77.2965 26.3739 77.8705 26.4886 78.7901 26.4886V27.2919H71.3241V26.4886C72.1283 26.4886 72.7024 26.2585 73.0471 26.0299C73.2772 25.6836 73.3919 24.8802 73.3919 23.6174V14.8886C73.3919 14.0853 73.2772 13.5104 73.0471 13.1657C72.817 12.8209 72.3584 12.4769 71.5542 12.1322V11.6728C72.3584 11.4435 73.1618 11.2134 73.8513 10.8694C74.6555 10.6393 75.3442 10.1807 76.1483 9.83594H76.6069V9.83514ZM82.1207 26.4886C83.1541 26.3739 83.729 26.2585 83.9575 26.0299C84.1876 25.7998 84.3023 25.225 84.3023 24.0769V14.8886C84.3023 14.0853 84.1876 13.5104 83.8436 13.1657C83.6135 12.8209 83.1549 12.4769 82.4654 12.1322V11.6728C83.2688 11.4435 84.0738 11.2134 84.7625 10.8694C85.4999 10.547 86.2275 10.2024 86.9441 9.83594H87.2904V12.9372C88.3239 11.7882 89.2419 10.9841 90.0469 10.5255C90.8503 10.066 91.8837 9.83675 92.9172 9.83675C94.8703 9.83675 96.2477 10.4108 97.1673 11.6744C97.9723 12.938 98.4309 14.8903 98.4309 17.6467V25.1127C98.4309 25.5713 98.5456 26.0316 98.7757 26.1462C99.0058 26.3763 99.579 26.491 100.613 26.491L100.729 27.2943H93.4929V26.491C94.4117 26.491 94.9866 26.3763 95.2151 26.1462C95.3313 26.0316 95.4452 25.686 95.4452 25.1127V16.7263C95.4452 15.0041 95.2151 13.6251 94.5263 12.8209C93.9515 11.9021 93.0343 11.5573 91.7699 11.5573C90.7364 11.5573 89.9314 11.7874 89.2427 12.2468C88.4394 12.7063 87.8645 13.3958 87.2912 14.3138V24.3062C87.2912 25.3396 87.4059 25.9137 87.7498 26.1438C87.9799 26.3739 88.5532 26.4886 89.472 26.4886V27.2919H82.1215L82.1207 26.4886ZM113.934 14.6585C114.394 14.6585 114.739 14.6585 114.969 14.4284C115.197 14.1983 115.314 13.969 115.314 13.5096C115.314 12.7054 114.969 12.0159 114.28 11.5565C113.59 10.9825 112.672 10.6377 111.523 10.6377C111.408 10.6377 111.178 10.6377 111.064 10.7532V9.83434H112.098C114.051 9.83434 115.773 10.4084 117.151 11.4419C118.645 12.5908 119.334 13.7389 119.334 15.0025C119.334 15.2318 119.334 15.4619 119.218 15.5766C119.104 15.6912 118.99 15.6912 118.645 15.6912H111.064V14.6577L113.934 14.6585ZM111.063 27.7521V24.9957C111.638 25.225 112.327 25.225 113.13 25.225C114.509 25.225 115.658 24.8802 116.806 24.1915C117.839 23.502 118.644 22.4685 119.103 21.2049L119.906 21.435C119.217 23.3873 118.184 24.9957 116.806 26.0299C115.314 27.1781 113.589 27.7521 111.638 27.7521H111.063ZM111.063 10.754C110.145 10.8686 109.225 11.2134 108.536 11.7874C107.733 12.4761 107.158 13.5104 106.814 14.6593H111.064V15.6928H106.584C106.469 16.4962 106.469 17.0711 106.356 17.5305V18.5647C106.356 20.517 106.929 22.1246 108.309 23.3881C109.112 24.1923 110.031 24.6517 111.065 24.9965V27.7529C108.882 27.6367 107.16 26.8341 105.781 25.3396C104.173 23.7329 103.37 21.6651 103.37 19.2534C103.37 16.3815 104.173 14.0853 105.781 12.3615C107.045 10.8686 108.882 10.0644 111.065 9.83514V10.754H111.063ZM123.123 26.3747V21.6652H123.926C124.386 23.5028 124.845 24.7664 125.535 25.5697C126.223 26.3747 127.143 26.8333 128.176 26.8333C129.21 26.8333 130.129 26.4886 130.703 25.7998C131.392 25.225 131.737 24.4216 131.737 23.3873C131.737 22.584 131.507 21.8945 131.048 21.435C130.473 20.861 129.555 20.1715 128.292 19.482C126.109 18.4485 124.845 17.6443 124.27 16.9556C123.683 16.2439 123.359 15.3518 123.352 14.4292C123.352 13.051 123.925 11.9029 124.96 11.0987C125.994 10.2946 127.372 9.83514 128.98 9.83514C129.899 9.83514 130.703 9.94979 131.506 10.1799C132.311 10.4092 133.114 10.6393 133.803 11.0987V15.2334H133C132.883 13.8552 132.425 12.7071 131.621 11.7882C130.817 10.9841 129.898 10.5247 128.75 10.5247C127.831 10.5247 127.141 10.7548 126.566 11.2134C126.108 11.6728 125.763 12.3615 125.763 13.051C125.763 14.0845 126.566 15.118 128.29 15.9221C128.405 16.0368 128.519 16.0368 128.519 16.1514C128.749 16.2669 129.094 16.3815 129.552 16.6108C132.883 18.4485 134.607 20.2861 134.607 22.2384C134.607 23.8459 134.032 25.225 132.769 26.1438C131.505 27.1773 129.897 27.6359 127.945 27.6359C127.14 27.6359 126.337 27.5212 125.532 27.4074C124.691 27.1609 123.882 26.8142 123.123 26.3747ZM138.513 26.3747V21.6652H139.318C139.663 23.5028 140.236 24.7664 140.927 25.5697C141.615 26.3747 142.419 26.8333 143.567 26.8333C144.602 26.8333 145.405 26.4886 146.094 25.7998C146.669 25.225 147.013 24.4216 147.013 23.3873C147.013 22.584 146.783 21.8945 146.324 21.435C145.864 20.861 144.946 20.1715 143.567 19.482C141.5 18.4485 140.122 17.6443 139.547 16.9556C138.974 16.2669 138.744 15.3481 138.744 14.4292C138.744 13.051 139.318 11.9029 140.352 11.0987C141.385 10.2946 142.649 9.83514 144.372 9.83514C145.175 9.83514 145.98 9.94979 146.784 10.1799C147.587 10.4092 148.392 10.6393 149.195 11.0987V15.2334H148.392C148.277 13.8552 147.703 12.7071 146.898 11.7882C146.095 10.9841 145.176 10.5247 144.028 10.5247C143.223 10.5247 142.534 10.7548 141.961 11.2134C141.386 11.6728 141.156 12.3615 141.156 13.051C141.156 14.0845 141.961 15.118 143.568 15.9221C143.684 16.0368 143.798 16.0368 143.913 16.1514L144.831 16.6108C148.278 18.4485 150 20.2861 150 22.2384C150 23.8459 149.312 25.225 148.047 26.1438C146.897 27.1773 145.291 27.6359 143.338 27.6359C142.533 27.6359 141.73 27.5212 140.811 27.4074C140.007 27.1781 139.318 26.8333 138.513 26.3747Z" fill="white"/>
<path fill-rule="evenodd" clip-rule="evenodd" d="M41.6955 33.9536V41.879C41.6955 42.4539 41.8101 42.7978 41.9248 42.9125C42.1549 43.0287 42.4988 43.1426 43.0737 43.1426V43.3727C42.4996 43.4874 42.0402 43.7175 41.4654 43.8313C40.8913 44.0614 40.3164 44.1761 39.7432 44.4062H39.5131V42.684C38.8244 43.3727 38.1348 43.8321 37.5608 44.1761C36.8575 44.4114 36.1199 44.5279 35.3784 44.5208C34.5742 44.5208 33.8847 44.4062 33.196 44.0622C32.6219 43.7175 32.047 43.3735 31.8177 42.7986C31.5876 42.4539 31.473 42.1099 31.473 41.7652C31.3583 41.4204 31.3583 40.8463 31.3583 40.1568V35.3318C31.3583 34.9871 31.2437 34.7586 31.0136 34.6431C30.8989 34.5285 30.4395 34.4146 29.75 34.4146V33.9544H33.5399V39.8129C33.5399 41.305 33.77 42.2246 34.114 42.6848C34.5734 43.258 35.2629 43.4882 36.2964 43.4882C36.9859 43.4882 37.56 43.258 38.134 43.0295C38.7014 42.6918 39.1752 42.2175 39.5123 41.6497V35.7928C39.5123 35.218 39.3976 34.874 39.1675 34.6431C39.0521 34.5285 38.5934 34.4146 38.0186 34.4146H37.9039V33.9544L41.6955 33.9536ZM53.0661 36.7109C53.4108 36.7109 53.6401 36.5946 53.8702 36.4807C53.9849 36.3661 54.0995 36.136 54.0995 35.9059C54.0995 35.4473 53.8702 34.9871 53.2954 34.7578C52.836 34.413 52.1464 34.1829 51.3431 34.1829C51.2284 34.1829 51.113 34.1829 50.9983 34.2975V33.7243H51.8017C53.1799 33.7243 54.4435 34.069 55.477 34.6423C56.5104 35.331 57.0845 36.0221 57.0845 36.8255C57.0845 36.9402 57.0845 37.0556 56.9691 37.1703C56.8544 37.2849 56.7397 37.2849 56.5096 37.2849H50.9967V36.7117L53.0661 36.7109ZM50.9983 44.5208V42.9125C51.4577 43.0287 51.9171 43.0287 52.4912 43.0287C53.5255 43.0287 54.4443 42.7986 55.2477 42.4539C55.9364 41.9937 56.5112 41.3042 56.9699 40.6154L57.4301 40.7309C56.9707 41.879 56.2811 42.9125 55.133 43.6012C54.0987 44.2899 52.836 44.52 51.4577 44.52L50.9983 44.5208ZM50.9983 34.2975C50.3096 34.2975 49.7347 34.5285 49.1607 34.8732C48.5866 35.3318 48.1264 35.9067 47.8971 36.7117H50.9983V37.2849H47.7824C47.6678 37.7451 47.6678 38.0899 47.5531 38.3184V39.0087C47.5531 40.1568 48.0126 41.1903 48.9314 41.879C49.5054 42.3376 50.1942 42.684 50.9983 42.9125V44.5208C49.5054 44.5208 48.1272 43.946 47.0937 43.1426C45.9448 42.1091 45.3707 40.8455 45.3707 39.4673C45.3707 37.6289 45.9448 36.2506 47.0937 35.2172C48.2132 34.3337 49.5758 33.8131 50.9991 33.7251V34.2983L50.9983 34.2975ZM67.1931 36.7109C67.5379 36.7109 67.7672 36.5946 67.8818 36.4807C68.1112 36.3661 68.1111 36.136 68.1111 35.9059C68.1111 35.4473 67.8818 34.9871 67.4224 34.7578C66.8484 34.413 66.2735 34.1829 65.4693 34.1829C65.3547 34.1829 65.1246 34.1829 65.0107 34.2975V33.7243H65.8141C67.307 33.7243 68.4551 34.069 69.604 34.6423C70.6375 35.331 71.2124 36.0221 71.2124 36.8255C71.2124 36.9402 71.0969 37.0556 71.0969 37.1703C70.9823 37.2849 70.8676 37.2849 70.6375 37.2849H65.0099V36.7117L67.1931 36.7109ZM65.0115 44.5208V42.9125C65.4701 43.0287 66.045 43.0287 66.5044 43.0287C67.4529 43.0276 68.391 42.832 69.2609 42.4539C70.0025 42.0226 70.6015 41.3834 70.9839 40.6154L71.5579 40.7309C71.0985 41.879 70.2944 42.9125 69.2609 43.6012C68.112 44.2899 66.8492 44.52 65.4701 44.52L65.0115 44.5208ZM65.0115 34.2983C64.4367 34.2983 63.748 34.5285 63.2885 34.8732C62.5998 35.3318 62.2551 35.9067 61.9103 36.7117H65.0115V37.2849H61.7957C61.7957 37.7451 61.6802 38.0899 61.6802 38.3184V39.0087C61.6802 40.1568 62.1396 41.1903 63.0584 41.879C63.6325 42.3376 64.322 42.684 65.0115 42.9125V44.5208C63.5178 44.5208 62.2551 43.946 61.2208 43.1426C60.0719 42.1091 59.4978 40.8455 59.4978 39.4673C59.4978 37.6289 60.0719 36.2506 61.2208 35.2172C62.2543 34.4138 63.5178 33.8389 65.0115 33.7251V34.2983ZM73.7395 43.8313C74.4282 43.7167 75.0031 43.6012 75.1178 43.4865C75.2332 43.3719 75.3479 43.0279 75.3479 42.3368V36.7109C75.3479 36.2506 75.2332 35.9059 75.0031 35.6774C74.8884 35.4473 74.5437 35.331 73.9696 35.1025V34.8724C74.5437 34.6423 75.1178 34.5277 75.6926 34.2975C76.2659 34.1829 76.7261 33.9528 77.2993 33.7243H77.5295V35.5611C78.1317 34.9534 78.83 34.4493 79.5964 34.069C80.1713 33.8389 80.86 33.7243 81.6649 33.7243C83.0432 33.7243 84.0767 34.069 84.7654 34.8724C85.3402 35.5611 85.6842 36.8255 85.6842 38.433V42.9117C85.6842 43.2564 85.7988 43.4866 85.9127 43.6004C86.0289 43.7167 86.4876 43.7167 87.2925 43.8305V44.2891H82.0089V43.8305C82.6976 43.7159 83.157 43.7159 83.2709 43.6004C83.3871 43.4858 83.501 43.2556 83.501 42.9117V37.9728C83.501 36.8247 83.2709 36.0213 82.8123 35.5611C82.3537 34.9863 81.6642 34.7578 80.7453 34.7578C80.0566 34.7578 79.4818 34.8724 78.9069 35.1025C78.4483 35.4473 77.8734 35.7912 77.5287 36.3661V42.4531C77.5287 43.0279 77.6433 43.4866 77.8734 43.6012C77.9897 43.7175 78.4483 43.8313 79.0231 43.8313V44.2899H73.7395V43.8313ZM89.705 43.7175V40.8455H90.2783C90.5084 41.9937 90.8532 42.7986 91.428 43.2572C91.8866 43.7175 92.5761 43.946 93.3811 43.946C94.0698 43.946 94.6447 43.8313 95.218 43.3727C95.6782 43.0279 95.9067 42.4539 95.9067 41.879C95.9067 41.4204 95.6782 41.0757 95.3334 40.7309C94.9886 40.3861 94.4146 40.0422 93.3803 39.5812C91.772 38.8925 90.8532 38.433 90.3937 37.9728C90.049 37.5142 89.8189 37.0548 89.8189 36.4807C89.8189 35.6774 90.1636 34.9871 90.9686 34.4138C91.772 33.9536 92.6908 33.7251 93.9536 33.7251C94.5284 33.7251 95.1033 33.7251 95.792 33.8397C96.3669 34.0698 96.9401 34.1845 97.5142 34.5285V36.9402H96.9393C96.7108 36.1368 96.3661 35.4481 95.7912 34.8732C95.2163 34.4146 94.5276 34.1845 93.7243 34.1845C93.0355 34.1845 92.5745 34.2992 92.2306 34.5293C91.772 34.874 91.5419 35.218 91.5419 35.679C91.5419 36.2522 92.2306 36.8271 93.3803 37.4012C93.495 37.4012 93.495 37.5158 93.6088 37.5158C93.7251 37.5158 93.9536 37.6305 94.2975 37.8606C96.8247 38.8941 97.9744 40.0438 97.9744 41.3058C97.9744 42.2246 97.5142 43.0295 96.5946 43.6028C95.7912 44.1777 94.6431 44.5216 93.1494 44.5216C92.5745 44.5216 92.0013 44.407 91.3126 44.2915C90.7385 44.1761 90.1636 43.946 89.705 43.7175ZM104.52 42.4531C104.52 43.0279 104.636 43.4866 104.75 43.6012C104.98 43.7175 105.439 43.8313 106.014 43.8313V44.2899H100.73V43.8313C101.419 43.8313 101.764 43.7167 101.994 43.4865C102.222 43.2564 102.338 42.7978 102.338 42.1083V30.8532C102.338 30.3946 102.222 29.9344 101.994 29.8197C101.877 29.5896 101.533 29.3611 100.959 29.2448V28.9001C101.533 28.7854 102.108 28.5553 102.682 28.4415C103.256 28.2114 103.716 27.9813 104.291 27.7528H104.519L104.52 42.4531ZM115.087 42.223V38.7778C114.168 39.0079 113.365 39.2364 112.79 39.5812V38.8925C113.479 38.6639 114.284 38.4338 115.202 38.0891V35.792C115.202 35.3318 114.973 34.9871 114.743 34.7586C114.513 34.5285 114.055 34.4138 113.48 34.4138H112.791V33.8389C113.25 33.7243 113.939 33.7243 114.513 33.7243C115.547 33.7243 116.235 33.8389 116.696 34.2975C117.155 34.7578 117.385 35.6774 117.385 37.0548V42.797C117.385 43.0271 117.5 43.1418 117.5 43.2556C117.616 43.3719 117.844 43.3719 117.96 43.3719C118.188 43.3719 118.419 43.3719 118.533 43.1418C118.649 43.0271 118.649 42.9117 118.763 42.5669H119.222C119.222 43.1418 118.993 43.6004 118.533 43.9452C118.188 44.2899 117.615 44.4054 117.041 44.4054C116.467 44.4054 116.008 44.2891 115.663 44.0606C115.203 43.7159 115.088 43.3719 114.974 42.9109C114.285 43.3711 113.594 43.8297 112.906 44.0606C112.906 44.1753 112.791 44.1753 112.791 44.1753V43.2564C113.021 43.1418 113.366 43.1418 113.71 43.0279C114.054 42.9125 114.512 42.684 115.087 42.223ZM112.79 39.5812C112.215 39.8113 111.757 40.0414 111.412 40.156C110.723 40.6146 110.378 41.0748 110.378 41.5343C110.378 41.9937 110.609 42.4531 110.953 42.7978C111.412 43.0279 111.987 43.2564 112.56 43.2564H112.79V44.1753C112.244 44.3997 111.659 44.5167 111.068 44.52C110.263 44.52 109.69 44.2899 109.115 43.9452C108.656 43.6004 108.426 43.0271 108.426 42.4531C108.426 41.5343 108.885 40.8447 109.804 40.2699C110.379 39.8113 111.413 39.3519 112.791 38.8917V39.5812H112.79ZM112.79 33.8389V34.4138C112.332 34.5285 111.987 34.6423 111.642 34.7586C111.182 34.9871 110.953 35.3318 110.953 35.6774C110.953 36.3661 110.837 36.9394 110.609 37.1695C110.378 37.5142 110.034 37.6281 109.459 37.6281C109.114 37.6281 108.884 37.5134 108.655 37.3996C108.539 37.2833 108.425 37.0548 108.425 36.7109C108.425 36.136 109.114 35.4473 110.378 34.7578C111.182 34.2984 111.987 34.069 112.79 33.8389ZM120.946 43.8313C121.749 43.7167 122.208 43.6012 122.324 43.4865C122.552 43.3719 122.552 43.0279 122.552 42.3368V36.7109C122.558 36.3533 122.479 35.9994 122.324 35.6774C122.094 35.4473 121.749 35.331 121.174 35.1025V34.8724C121.863 34.6423 122.438 34.5277 122.896 34.2975C123.471 34.1829 124.046 33.9528 124.505 33.7243H124.85L124.735 35.5611C125.337 34.9534 126.035 34.4493 126.802 34.069C127.377 33.8389 128.065 33.7243 128.869 33.7243C130.247 33.7243 131.28 34.069 131.971 34.8724C132.544 35.5611 132.889 36.8255 132.889 38.433V42.9117C132.889 43.2564 133.005 43.4866 133.119 43.6004C133.349 43.7167 133.808 43.7167 134.497 43.8305L134.613 44.2891H129.214V43.8305C129.903 43.7159 130.364 43.7159 130.478 43.6004C130.708 43.4858 130.708 43.2556 130.708 42.9117V37.9728C130.708 36.8247 130.478 36.0213 130.133 35.5611C129.675 34.9863 128.985 34.7578 127.952 34.7578C127.263 34.7578 126.688 34.8724 126.113 35.1025C125.654 35.4473 125.194 35.7912 124.735 36.3661V42.4531C124.735 43.0279 124.85 43.4866 125.08 43.6012C125.31 43.7175 125.654 43.8313 126.343 43.8313V44.2899H120.946V43.8313ZM146.328 42.223V38.433C146.328 37.0548 146.098 36.0213 145.523 35.331C144.95 34.6423 144.031 34.2975 142.881 34.2975H142.766V33.7243H142.997C143.455 33.7243 143.915 33.8389 144.489 33.8389C145.064 33.9536 145.638 34.069 146.327 34.2975V30.8524C146.327 30.2775 146.211 29.9336 145.982 29.7042C145.752 29.4741 145.408 29.3595 144.833 29.244V28.8993C145.408 28.7846 146.096 28.6708 146.671 28.4407C147.244 28.2106 147.819 27.9805 148.393 27.752H148.623V42.3368C148.623 42.5669 148.738 42.797 148.852 42.9117C148.968 43.0279 149.312 43.1418 149.885 43.2564V43.4865C149.197 43.7167 148.623 43.8313 148.049 44.0614C147.588 44.1761 147.015 44.2899 146.67 44.4062H146.326V42.9125C145.751 43.3727 145.176 43.8313 144.487 44.1761C143.912 44.2907 143.339 44.5208 142.765 44.5208V43.2572C142.995 43.2572 143.224 43.3735 143.454 43.3735C144.028 43.3735 144.487 43.2572 145.062 43.0287C145.523 42.9125 145.983 42.5677 146.328 42.223ZM142.766 34.2975C141.733 34.2975 140.813 34.7586 140.125 35.5619C139.436 36.3669 139.091 37.515 139.091 38.8925C139.091 40.156 139.55 41.1895 140.355 41.9929C141.044 42.7978 141.847 43.1426 142.766 43.2564V44.52H142.308C140.7 44.52 139.436 44.0614 138.288 43.0279C137.253 41.9929 136.794 40.7309 136.794 39.1226C136.794 37.5142 137.253 36.136 138.403 35.2172C139.551 34.2984 140.93 33.8381 142.766 33.7243V34.2975Z" fill="white" fill-opacity="0.7"/>
<path fill-rule="evenodd" clip-rule="evenodd" d="M27.5591 25.9144C28.1332 25.6843 28.7081 25.4558 29.1667 25.1111C31.4637 23.8467 32.498 22.0099 32.498 19.368C32.498 17.7605 31.9239 16.3815 30.6604 15.2334C29.3968 14.1999 27.6738 13.5112 25.6069 13.1656C27.2144 12.7062 28.3633 11.9028 29.1667 11.0987C29.9709 10.0644 30.4303 9.03092 30.4303 7.76814C30.4303 5.47109 29.5114 3.86275 27.5583 2.82928C26.2948 2.13976 24.3425 1.68036 21.9308 1.45106V2.48452C22.8496 2.71463 23.7684 3.17404 24.4571 3.63345C25.7207 4.66693 26.4102 6.04515 26.4102 7.88279C26.4102 9.72043 25.7215 11.0987 24.3425 12.0175C23.7684 12.4769 22.8496 12.8216 21.9308 13.0518V14.3145C23.7684 14.43 25.1466 14.8886 26.0655 15.5781C27.329 16.4969 28.0178 17.9898 28.0178 20.1722C28.0178 21.6651 27.5583 22.8132 26.8688 23.7328L27.5591 25.9144ZM21.9316 26.9479V26.0299C22.7357 26.0299 23.4245 25.7998 24.114 25.6835L24.2294 26.7186C23.5399 26.8333 22.7357 26.8333 21.9316 26.9479ZM21.9316 1.45025C20.8973 1.3348 19.7492 1.22095 18.4856 1.22095C18.0262 1.22095 16.7634 1.3356 14.9258 1.3356H10.1016V2.25442H10.3309C11.4798 2.25442 12.284 2.36907 12.6279 2.59918C12.9727 2.94394 13.202 3.63265 13.202 4.78158V23.2726C13.202 24.5362 12.9719 25.3396 12.6279 25.5697C12.284 25.7998 11.479 26.0299 10.3309 26.0299H10.1016V26.8333C11.0204 26.8333 12.284 26.9479 13.8923 26.9479H21.9316V26.0299C21.5868 26.1445 21.2429 26.1445 20.7826 26.1445C19.5191 26.1445 18.6002 25.9144 18.1408 25.5697C17.6814 25.2249 17.4521 24.5362 17.4521 23.732V14.1991H19.7492C20.5525 14.1991 21.2421 14.1991 21.9316 14.3137V13.051C20.8973 13.2803 19.7492 13.3957 18.3717 13.3957H17.4529V2.13976H18.7165C19.8646 2.13976 21.0136 2.25522 21.9324 2.48452V1.45025H21.9316Z" fill="white"/>
</svg>
