<svg xmlns="http://www.w3.org/2000/svg" width="139" height="70" viewBox="0 0 139 70" fill="none"><path d="M38.872 60V58.02C39.544 57.996 40.06 57.888 40.42 57.696C40.78 57.48 41.032 57.12 41.176 56.616C41.32 56.088 41.392 55.368 41.392 54.456V40.092C41.392 39.492 41.404 38.916 41.428 38.364C41.476 37.812 41.512 37.38 41.536 37.068C41.128 37.092 40.66 37.116 40.132 37.14C39.604 37.14 39.184 37.152 38.872 37.176V34.8H48.448V36.78C47.8 36.804 47.284 36.924 46.9 37.14C46.54 37.332 46.288 37.68 46.144 38.184C46 38.688 45.928 39.408 45.928 40.344V54.672C45.928 55.32 45.916 55.92 45.892 56.472C45.868 57 45.832 57.42 45.784 57.732L51.256 57.696C52.696 57.696 53.812 57.216 54.604 56.256C55.396 55.272 55.792 53.772 55.792 51.756H57.808L57.592 60H38.872ZM70.5354 60C70.4634 59.64 70.4154 59.34 70.3914 59.1C70.3914 58.836 70.3794 58.536 70.3554 58.2C69.5394 59.016 68.6634 59.616 67.7274 60C66.8154 60.384 65.8674 60.576 64.8834 60.576C63.2514 60.576 61.9914 60.132 61.1034 59.244C60.2394 58.356 59.8074 57.264 59.8074 55.968C59.8074 54.816 60.1194 53.844 60.7434 53.052C61.3674 52.236 62.1834 51.576 63.1914 51.072C64.1994 50.544 65.3154 50.148 66.5394 49.884C67.7634 49.596 68.9754 49.44 70.1754 49.416V47.436C70.1754 46.74 70.0914 46.104 69.9234 45.528C69.7794 44.928 69.5034 44.46 69.0954 44.124C68.6874 43.764 68.0874 43.584 67.2954 43.584C66.7674 43.608 66.2274 43.728 65.6754 43.944C65.1474 44.136 64.7274 44.448 64.4154 44.88C64.6074 45.096 64.7274 45.336 64.7754 45.6C64.8234 45.84 64.8474 46.056 64.8474 46.248C64.8474 46.68 64.6794 47.136 64.3434 47.616C64.0074 48.072 63.4674 48.288 62.7234 48.264C62.0754 48.24 61.5714 48.012 61.2114 47.58C60.8754 47.148 60.7074 46.632 60.7074 46.032C60.7074 45.12 61.0314 44.328 61.6794 43.656C62.3514 42.96 63.2514 42.42 64.3794 42.036C65.5074 41.628 66.7674 41.424 68.1594 41.424C70.2234 41.424 71.8074 41.964 72.9114 43.044C74.0154 44.124 74.5554 45.852 74.5314 48.228C74.5314 49.068 74.5314 49.836 74.5314 50.532C74.5314 51.204 74.5194 51.888 74.4954 52.584C74.4954 53.256 74.4954 54.012 74.4954 54.852C74.4954 55.212 74.4834 55.668 74.4594 56.22C74.4354 56.748 74.3994 57.276 74.3514 57.804C74.7834 57.756 75.2154 57.732 75.6474 57.732C76.1034 57.708 76.4754 57.684 76.7634 57.66V60H70.5354ZM70.1394 51.54C69.4194 51.588 68.7114 51.708 68.0154 51.9C67.3194 52.068 66.6954 52.308 66.1434 52.62C65.5914 52.932 65.1474 53.328 64.8114 53.808C64.4994 54.264 64.3554 54.792 64.3794 55.392C64.4034 56.136 64.6434 56.688 65.0994 57.048C65.5554 57.384 66.0834 57.552 66.6834 57.552C67.3794 57.552 68.0034 57.408 68.5554 57.12C69.1314 56.832 69.6594 56.448 70.1394 55.968C70.1394 55.728 70.1394 55.476 70.1394 55.212C70.1394 54.948 70.1394 54.684 70.1394 54.42C70.1394 54.084 70.1394 53.664 70.1394 53.16C70.1394 52.656 70.1394 52.116 70.1394 51.54ZM84.2438 60.108L79.7438 47.184C79.5518 46.584 79.3958 46.128 79.2758 45.816C79.1558 45.48 79.0718 45.204 79.0238 44.988C78.9758 44.748 78.9158 44.496 78.8438 44.232L77.2598 44.304V42H85.5758V43.908C84.7118 43.932 84.2198 44.244 84.0998 44.844C84.0038 45.444 84.0758 46.188 84.3158 47.076L85.6838 51.684C85.8518 52.212 86.0078 52.776 86.1518 53.376C86.3198 53.952 86.4638 54.528 86.5838 55.104C86.7278 54.552 86.8838 53.976 87.0518 53.376C87.2198 52.752 87.4238 52.032 87.6638 51.216L90.5078 42H93.6038L96.7358 52.116C96.9038 52.62 97.0718 53.16 97.2398 53.736C97.4078 54.312 97.5638 54.852 97.7078 55.356C97.8278 54.876 97.9718 54.36 98.1398 53.808C98.3078 53.232 98.4758 52.704 98.6438 52.224L100.372 46.896C100.54 46.32 100.696 45.816 100.84 45.384C101.008 44.952 101.2 44.556 101.416 44.196L99.3638 44.304V42H105.988V43.908C105.46 43.908 105.004 44.04 104.62 44.304C104.26 44.544 103.948 44.856 103.684 45.24C103.42 45.624 103.204 46.008 103.036 46.392C102.868 46.776 102.736 47.124 102.64 47.436L98.1758 60.108H95.1518L92.3438 51.72C92.2478 51.408 92.1158 51.012 91.9478 50.532C91.8038 50.052 91.6598 49.548 91.5158 49.02C91.3718 48.492 91.2278 47.988 91.0838 47.508C90.9398 48.084 90.7598 48.732 90.5438 49.452C90.3518 50.172 90.1598 50.844 89.9678 51.468C89.7758 52.092 89.6198 52.56 89.4998 52.872L87.0518 60.108H84.2438ZM109.826 41.064C109.826 38.232 110.414 36.144 111.59 34.8C112.766 33.432 114.47 32.748 116.702 32.748C117.638 32.748 118.418 32.892 119.042 33.18C119.69 33.444 120.182 33.804 120.518 34.26C120.854 34.716 121.022 35.22 121.022 35.772C121.022 36.324 120.854 36.816 120.518 37.248C120.182 37.68 119.69 37.896 119.042 37.896C118.394 37.92 117.902 37.74 117.566 37.356C117.23 36.972 117.062 36.54 117.062 36.06C117.062 35.916 117.074 35.784 117.098 35.664C117.122 35.544 117.146 35.412 117.17 35.268C117.05 35.124 116.882 35.028 116.666 34.98C116.474 34.908 116.294 34.872 116.126 34.872C115.622 34.872 115.226 35.028 114.938 35.34C114.65 35.628 114.458 35.988 114.362 36.42C114.266 36.852 114.218 37.308 114.218 37.788V42H118.502V44.304L114.218 44.412L114.254 54.816C114.254 55.2 114.242 55.668 114.218 56.22C114.218 56.772 114.182 57.3 114.11 57.804C114.518 57.756 114.95 57.732 115.406 57.732C115.886 57.708 116.27 57.696 116.558 57.696V60H107.702V58.092C108.398 58.092 108.89 57.948 109.178 57.66C109.49 57.348 109.682 56.916 109.754 56.364C109.826 55.812 109.862 55.188 109.862 54.492L109.826 44.484L107.09 44.52V42H109.826V41.064ZM124.164 69.756C123.3 69.756 122.568 69.516 121.968 69.036C121.368 68.556 121.068 67.896 121.068 67.056C121.068 66.48 121.26 65.964 121.644 65.508C122.028 65.076 122.52 64.848 123.12 64.824C123.648 64.8 124.068 64.968 124.38 65.328C124.716 65.712 124.884 66.168 124.884 66.696C124.884 66.768 124.884 66.84 124.884 66.912C124.884 67.008 124.872 67.104 124.848 67.2C124.896 67.2 124.98 67.2 125.1 67.2C125.34 67.152 125.592 66.972 125.856 66.66C126.144 66.372 126.408 65.976 126.648 65.472C126.936 64.92 127.236 64.236 127.548 63.42C127.86 62.628 128.16 61.74 128.448 60.756L122.796 49.128C122.148 47.784 121.704 46.752 121.464 46.032C121.248 45.312 121.092 44.712 120.996 44.232L119.34 44.304V42H127.8V43.908H127.728C126.816 43.98 126.312 44.328 126.216 44.952C126.12 45.552 126.276 46.296 126.684 47.184L130.464 55.572C130.8 54.636 131.172 53.484 131.58 52.116C132.012 50.748 132.492 49.308 133.02 47.796C133.14 47.412 133.284 46.992 133.452 46.536C133.644 46.056 133.836 45.6 134.028 45.168C134.22 44.736 134.412 44.412 134.604 44.196L132.408 44.304V42H138.564V43.908C137.772 44.124 137.136 44.616 136.656 45.384C136.2 46.128 135.768 47.064 135.36 48.192L130.86 60.936C130.164 62.904 129.516 64.536 128.916 65.832C128.316 67.152 127.644 68.136 126.9 68.784C126.18 69.432 125.268 69.756 124.164 69.756Z" fill="white"></path><path d="M32.4916 3.73643V3.72918C32.5133 3.60591 32.5206 3.48264 32.5278 3.35938C32.5206 3.48264 32.5061 3.60591 32.4844 3.72918C32.4916 3.72918 32.4916 3.73643 32.4916 3.73643Z" fill="#B57A51"></path><path d="M25.5055 3.27746C25.52 3.26296 25.5634 3.2122 25.5851 3.1832C25.6574 3.08893 25.7225 2.99467 25.8093 2.91491C25.8166 2.90766 25.8166 2.90766 25.8238 2.90766C25.8238 2.90041 25.8238 2.90041 25.8238 2.89316C25.8166 2.82065 25.9468 1.74024 26.3881 1.29068C27.2563 0.413307 28.6742 0.319044 28.9564 0.319044C28.9998 0.319044 29.036 0.319044 29.0577 0.319044C29.0649 0.319044 29.0722 0.319044 29.0722 0.319044H29.0794H29.0866C30.2586 0.319044 31.1195 0.601835 31.6404 1.15291C31.7924 1.31969 31.9009 1.50096 31.9805 1.68224C32.0166 1.71124 32.0528 1.73299 32.089 1.76925C32.2916 1.97228 32.3567 2.20431 32.5014 2.44359C32.5086 2.45084 32.5158 2.46535 32.5158 2.4726C32.3928 1.23267 31.5898 0 29.0866 0H29.0794C29.0794 0 29.0794 0 29.0722 0C29.0722 0 29.0722 0 29.0649 0C29.036 0 28.9998 0 28.9492 0C28.2474 0 25.3319 0.239282 25.5055 3.27746Z" fill="#B57A51"></path><path d="M32.5365 2.98753C32.4352 2.74825 32.3629 2.47996 32.2544 2.32044C32.0084 3.06004 31.1692 2.20442 30.887 1.7041C30.9087 1.96514 30.8436 2.28418 31.0534 2.44371C30.7062 2.37845 30.5181 2.33494 30.1997 2.17542C29.8887 2.0159 29.6065 1.75486 29.5052 1.41406C29.2086 2.06665 28.7456 2.64674 28.1596 3.0673C28.1668 2.95128 28.1668 2.83526 28.1741 2.712C27.5736 3.29933 25.9675 3.72714 26.416 2.31319C26.3003 2.47271 25.8445 3.0963 25.519 3.4661C25.519 3.47335 25.5117 3.47335 25.5117 3.4806C25.5262 3.57487 25.5407 3.67638 25.5551 3.77789C25.5624 3.77789 25.5624 3.77789 25.5696 3.77789C25.7505 3.77064 25.9313 3.76339 26.1122 3.75614C26.1122 3.69088 26.105 3.61837 26.105 3.55311C26.4884 3.56036 27.154 3.53861 27.8485 3.29933C27.8051 3.41534 27.6966 3.53136 27.6966 3.53136C27.6966 3.53136 28.2102 3.39359 28.5286 3.23407C29.0133 2.99478 29.4039 2.68299 29.8091 2.31319C30.6194 2.7265 31.4803 2.95128 32.0012 3.06004C32.0156 3.27032 32.0229 3.50961 32.0084 3.76339C32.0156 3.76339 32.0229 3.76339 32.0301 3.76339C32.1314 3.77064 32.2327 3.77064 32.334 3.77789C32.3701 3.77789 32.4063 3.77789 32.4425 3.78515C32.4425 3.78515 32.4569 3.53136 32.4787 3.38634V3.37909C32.5004 3.26307 32.5076 3.13255 32.5221 3.00929C32.5365 3.00204 32.5365 2.99478 32.5365 2.98753Z" fill="#B57A51"></path><path d="M36.1871 19.4292C37.2291 19.4292 38.148 19.0231 38.6979 18.4141H33.6836C34.2263 19.0304 35.1452 19.4292 36.1871 19.4292Z" fill="#B57A51"></path><path d="M43.9368 9.64808H44.1466V9.48853L41.1734 9.14043L41.47 6.95027C41.8461 6.73995 41.9836 6.36284 42.121 5.89144L41.8172 5.80442C41.6653 6.31932 41.5495 6.5659 41.2529 6.70369L41.1734 6.73995L40.8623 9.10417L40.1099 9.01714L39.9869 9.00264L40.1533 9.01714V6.47162V5.31127C40.2257 5.31852 40.3052 5.31127 40.3704 5.28226C40.4355 5.37654 40.5367 5.44906 40.6597 5.47807C40.7682 5.50708 40.884 5.48532 40.978 5.44181C41.0431 5.52158 41.1372 5.58685 41.2529 5.60861C41.2891 5.61586 41.3253 5.62311 41.3614 5.62311C41.4917 5.62311 41.6074 5.57235 41.687 5.49257C41.7666 5.54334 41.8678 5.57235 41.9619 5.57235C42.0487 5.57235 42.1283 5.55059 42.1862 5.50708C42.2657 5.44906 42.3091 5.36203 42.3019 5.29676L42.4394 4.68033L42.4972 4.40474C42.5406 4.20168 42.4032 3.99862 42.1789 3.94785C42.1138 3.93335 42.0487 3.93335 41.9908 3.94785C41.933 3.83182 41.8172 3.73754 41.6653 3.70853C41.5857 3.69403 41.5061 3.69403 41.4338 3.70853C41.4193 3.67952 41.4049 3.65051 41.3832 3.62876C41.318 3.53448 41.2095 3.46921 41.0938 3.44745C40.9419 3.41119 40.7899 3.4547 40.6814 3.54173C40.6236 3.49097 40.5512 3.4547 40.4716 3.4402C40.2257 3.38943 39.9797 3.52723 39.9363 3.75205L39.7554 4.56429C39.6252 4.44826 39.4588 4.40474 39.278 4.46276C39.0176 4.54253 38.8801 4.81812 38.9597 5.07195L38.9741 5.11546C39.0031 5.22424 39.0248 5.34753 39.0465 5.48532C39.1044 5.78991 39.1695 6.13802 39.278 6.37009C39.4227 6.66743 39.5384 6.80522 39.7916 6.96477L39.1767 9.08966L35.8128 9.48853V9.64808H36.037L35.5017 11.5264H35.4583H35.1906C34.894 11.4031 33.6136 11.0333 32.8684 10.8302C32.8974 10.7359 32.9191 10.6344 32.9408 10.5329V10.5401L33.1144 9.98894C33.2736 9.5393 33.4616 9.25647 33.5485 8.77057C33.6642 8.12512 33.6136 7.55945 33.4038 7.0808C33.3459 6.95026 33.2808 6.83423 33.2085 6.71094C33.0855 6.49338 32.977 6.29031 32.9408 6.07275L32.7599 6.38459C32.8033 6.66018 32.8106 6.63842 32.9336 6.87049C32.9987 6.98653 33.0638 7.09531 33.1144 7.2186C33.2953 7.63197 33.3387 8.15413 33.2374 8.72705C33.1578 9.18394 33.0276 9.41601 32.8757 9.85114L32.825 9.99619C32.8033 10.047 32.7889 10.0977 32.7599 10.1485C32.6152 10.4096 32.3114 10.5256 32.0293 10.6199C31.9786 10.1993 32.0654 9.77137 32.145 9.35799C32.0148 9.77137 31.7399 10.1412 31.3782 10.3878C31.4867 9.84389 31.8846 8.99539 32.051 8.47323C31.8846 8.69805 31.4361 9.2202 31.2335 9.40876C31.3203 8.54575 31.8484 8.28467 32.3331 6.38459C32.3982 6.34108 32.4706 6.28306 32.5284 6.19604C32.7599 5.89144 32.8612 5.49257 32.8467 5.11546C32.8395 4.85438 32.7527 4.47001 32.4633 4.37573L32.4344 4.36848C32.4272 4.36848 32.4272 4.34672 32.4199 4.32497V4.17267V4.14366C32.4199 4.0929 32.4199 4.04213 32.4199 4.02763C32.4199 4.02763 31.559 3.98412 31.219 3.97686C29.8228 3.9406 28.3615 3.9406 26.8713 3.98412C26.8713 3.98412 26.5385 3.99137 26.1623 4.00587C25.9814 4.01312 25.6993 3.99862 25.5184 4.00587C25.5184 4.00587 25.5184 4.06389 25.5257 4.13641C25.5257 4.13641 25.5257 4.13641 25.5184 4.13641L25.5257 4.18718L25.5401 4.39749L25.5184 4.12916C25.5184 4.12916 25.5184 4.12916 25.5257 4.12916C25.5329 4.24519 25.5401 4.39749 25.5401 4.39749V4.4265C25.5329 4.4265 25.5257 4.4265 25.5184 4.4265L25.475 4.441L25.4461 4.47001C25.1567 4.73834 25.1567 5.17348 25.2435 5.52883C25.287 5.71739 25.3593 5.8987 25.4533 6.07275C25.4967 6.14527 25.5401 6.21779 25.5908 6.27581C25.6053 6.29031 25.6848 6.34108 25.7572 6.38459C25.9308 7.12432 26.1189 8.00183 26.5746 9.02439C26.43 8.66904 25.9236 8.50224 25.7789 8.14688C25.7644 8.47323 25.8946 8.74156 25.9887 9.0534C26.09 9.41601 26.3214 9.74236 26.3359 10.1122C26.3504 10.3298 26.2925 10.5764 26.4372 10.7432C26.09 10.4676 25.844 10.0687 25.7572 9.64083C25.7065 9.99619 25.7572 10.3661 25.9019 10.6924C25.8006 10.6634 25.7065 10.6054 25.627 10.5401C25.4533 10.0034 24.824 8.93737 25.2725 7.87129C25.3159 7.76251 25.3521 7.64648 25.3955 7.53044C25.5184 7.20409 25.6342 7.17508 25.6776 6.77621L25.4172 6.38459C25.4823 6.64567 25.3448 6.98653 25.0989 7.41441C24.7444 8.0381 24.7154 9.19845 25.2146 10.2355C25.2146 10.2428 25.2218 10.25 25.2218 10.2573C25.2363 10.2863 25.2435 10.3153 25.2652 10.3443H25.2725C25.4461 10.7214 25.6342 10.997 25.8368 11.2073L25.7933 11.2146C26.0031 12.1138 26.2202 13.3975 26.0755 14.3693C25.9453 15.2395 25.5329 15.9648 24.9252 16.4144C24.9108 16.4216 24.8963 16.4361 24.8818 16.4506V16.4579L24.8891 16.5014L25.2435 18.358L25.5401 19.9172C25.598 20.2 25.6342 20.4829 25.6559 20.7657C25.7282 21.6215 25.6487 22.4772 25.4027 23.3112C24.6865 25.7987 24.1295 28.3007 23.6954 30.723C23.5218 31.7093 23.3699 32.6883 23.2324 33.6529L24.5708 35.4804C24.7733 35.0308 24.9976 34.5884 25.2363 34.1678C26.5312 31.8833 28.1734 29.6206 30.6041 28.4966C29.49 28.4023 28.3904 28.9389 27.573 29.6859C26.7627 30.4256 26.1768 31.3757 25.5691 32.2895C25.3159 32.6738 24.8095 33.1017 24.4478 32.8116C24.2597 32.6666 24.238 32.3982 24.238 32.1589C24.2452 30.3749 24.4912 28.5981 24.9831 26.8721C25.0627 26.582 25.1495 26.2991 25.2508 26.009C25.3448 25.7335 25.7427 24.2613 25.844 23.9929C25.9236 23.7826 26.5168 25.3636 29.1862 25.6464C26.8061 24.4353 26.5312 23.9349 26.1478 23.0937C26.741 23.5578 26.864 23.8987 27.9492 23.8769C26.9219 23.449 26.3576 22.5135 26.1478 22.1726C25.8874 21.7665 25.8368 21.578 25.8223 21.0993C25.7716 19.6271 26.5023 18.4015 28.3904 17.6183C27.4717 17.9736 25.504 18.0896 25.0844 16.6682C25.7644 16.1678 26.2202 15.3701 26.3649 14.4128C26.5168 13.412 26.2997 12.1138 26.09 11.1855L27.0159 10.8157C28.1734 13.8471 30.293 15.5586 33.3097 15.9067L33.4544 15.9212L33.6425 14.9422C33.7365 14.4998 34.12 14.159 34.5757 14.1154L34.7493 14.1082L33.5919 18.1477H33.78L34.9447 14.1009L36.066 14.0429V18.1477H36.2468V14.0357L37.332 13.9849L38.5256 18.1549H38.7137L37.5128 13.9776L39.2852 13.8906C39.9869 13.8544 40.5657 13.3395 40.6525 12.665L41.0721 9.64083H43.6619L41.2168 18.1549H41.4049L43.6909 10.1992V18.1549H43.8717V10.2065L46.1578 18.1622H46.3458L43.9368 9.64808ZM40.0303 4.85438L40.2618 3.81731C40.2763 3.76655 40.3487 3.73029 40.4282 3.74479C40.4716 3.75205 40.5078 3.7738 40.5295 3.81006C40.544 3.82457 40.5512 3.85357 40.5512 3.88258V3.88984C40.5512 3.89709 40.5512 3.91159 40.5512 3.9261C40.5512 3.99862 40.6019 4.06389 40.6742 4.07839C40.7538 4.10015 40.8406 4.04213 40.8623 3.95511C40.8623 3.95511 40.8623 3.95511 40.8623 3.94785L40.8912 3.81731C40.9057 3.76655 40.978 3.73029 41.0576 3.74479C41.101 3.75205 41.1372 3.7738 41.1589 3.81006C41.1734 3.82457 41.1878 3.85358 41.1734 3.88984C41.1661 3.91159 41.1517 4.00587 41.1517 4.00587C41.13 4.0929 41.1878 4.17267 41.2674 4.19443C41.3542 4.21619 41.4338 4.16542 41.4555 4.07839C41.47 4.02763 41.5423 3.99137 41.6146 4.00587C41.6942 4.02038 41.7521 4.08565 41.7376 4.15092L41.7232 4.20893C41.7015 4.29596 41.7593 4.37573 41.8389 4.39749C41.9257 4.41925 42.0053 4.36848 42.027 4.28146C42.0342 4.2597 42.0632 4.24519 42.1283 4.24519C42.1862 4.2597 42.2151 4.29596 42.2079 4.33222C42.2006 4.36123 42.15 4.60055 42.15 4.60055L42.0125 5.23875C42.0125 5.23875 41.9981 5.246 41.9691 5.246C41.904 5.246 41.8317 5.20248 41.8317 5.15897C41.8461 5.07194 41.7955 4.99217 41.7087 4.97041C41.6219 4.94866 41.5423 5.00667 41.5206 5.08645L41.4917 5.20974C41.4772 5.2605 41.4049 5.29676 41.3253 5.28226C41.2529 5.26775 41.2168 5.21699 41.2023 5.15172C41.2023 5.14447 41.2023 5.14447 41.2023 5.13722C41.2168 5.05019 41.1661 4.97041 41.0793 4.94866C40.9997 4.9269 40.9129 4.98492 40.8912 5.06469C40.8768 5.13722 40.7972 5.15897 40.7248 5.14447C40.667 5.12996 40.6163 5.0937 40.6019 5.02118C40.6091 5.00668 40.6091 4.98492 40.6091 4.97767C40.6308 4.89064 40.5729 4.81087 40.4933 4.78911C40.4065 4.76735 40.3269 4.81812 40.3052 4.90514C40.2908 4.95591 40.2184 4.99217 40.1461 4.97767C40.0738 4.96316 40.0376 4.9124 40.0303 4.89064H40.0159C40.0231 4.89064 40.0303 4.87614 40.0303 4.85438ZM32.4416 4.13641V4.26695V4.32497C32.4416 4.2742 32.4416 4.20168 32.4416 4.13641ZM26.9074 4.28871C28.3904 4.24519 30.6692 4.2742 32.0654 4.31046C32.0654 4.31046 31.2335 4.41925 31.2118 4.48452C31.1973 4.52803 32.0003 4.50627 31.9859 4.56429C31.9786 4.60055 30.8935 4.80361 30.8863 4.84713C30.8718 4.91965 31.928 4.83262 31.9135 4.90514C31.9063 4.97041 30.445 5.14447 30.445 5.20974C30.445 5.23875 31.8918 5.15897 31.8918 5.18798C31.8918 5.23149 30.7705 5.39829 30.7777 5.43456C30.785 5.46356 31.9135 5.36928 31.9208 5.39829C31.9208 5.4273 31.3637 5.5796 31.1539 5.63762C31.1033 5.65212 30.5173 5.77541 30.3292 5.80442L30.2569 5.81167C29.5769 5.9132 28.9113 5.93496 28.2747 5.87694C28.0866 5.86243 27.8985 5.83343 27.7104 5.80442C27.6598 5.79717 26.9291 5.5941 26.8206 5.55059C26.647 5.49257 26.2563 5.39829 26.2491 5.37654C26.2491 5.35478 27.3921 5.43455 27.3921 5.40555C27.3921 5.38379 26.2129 5.15172 26.2057 5.12271C26.1985 5.07195 27.2764 5.12271 27.2619 5.07195C27.2474 5.00668 26.1478 4.88339 26.1261 4.81812C26.1044 4.7456 26.9219 4.78911 26.9074 4.72384C26.8857 4.65132 26.0465 4.55704 26.0248 4.49902C25.9959 4.41925 26.6832 4.44826 26.6687 4.43375C26.6398 4.36848 25.9236 4.24519 25.9236 4.24519L26.9074 4.28871ZM26.7627 7.82778C26.5457 7.52319 26.278 7.00103 26.1985 6.29032L26.184 6.15252H25.9959C25.9597 6.14527 25.9091 6.11626 25.8585 6.05824C25.8006 6.00023 25.7499 5.9132 25.7138 5.84068C25.7065 5.82617 25.6993 5.80442 25.6921 5.78266L25.6776 5.7464C25.6704 5.72464 25.6631 5.69563 25.6487 5.66663L25.6342 5.62311C25.6197 5.58685 25.6125 5.55059 25.6053 5.51433L25.598 5.46356L25.5836 5.4273C25.5329 5.11546 25.5836 4.86163 25.6704 4.73834C25.7572 4.73109 25.8729 4.78186 25.9525 5.23875C25.967 5.31852 25.9814 5.39829 25.9887 5.47807L26.0176 5.68838L26.1044 5.71739C26.2997 5.78991 26.5168 5.86243 26.77 5.93496C26.8206 5.94946 26.8785 5.96397 26.9653 5.98572C27.1244 6.02924 27.2908 6.0655 27.45 6.09451L27.4934 6.10176C27.5513 6.11626 27.6091 6.12351 27.667 6.13077C27.8623 6.16703 28.0577 6.18878 28.2602 6.21054C28.9113 6.26856 29.5913 6.25405 30.2858 6.14527V6.15252C30.3075 6.15252 30.3292 6.14527 30.3509 6.13802L30.3943 6.13077C30.5897 6.10176 30.785 6.05824 30.9803 6.01473L31.0743 5.99297C31.1322 5.97847 31.1901 5.97122 31.248 5.95671C31.5373 5.88419 31.7978 5.80442 32.0799 5.71014L32.1812 5.67388V5.5651C32.1812 5.36929 32.1884 5.12996 32.2463 4.94141C32.2969 4.75285 32.3765 4.70934 32.4272 4.69483C32.5284 4.76735 32.608 5.05744 32.5501 5.43456L32.5284 5.51433C32.5212 5.55784 32.514 5.5941 32.5067 5.61586L32.4199 5.83343C32.391 5.89144 32.3548 5.94946 32.3114 6.01473C32.2463 6.10176 32.1812 6.15252 32.1523 6.15978H31.9425L31.928 6.29757C31.8484 7.02279 31.5807 7.53044 31.371 7.83503C31.125 8.18314 30.8935 8.46598 30.662 8.7053L30.6186 8.75606C29.9675 9.41601 29.396 9.66984 29.0705 9.68434C28.7449 9.66984 28.1806 9.41601 27.5223 8.75606L27.4789 8.7053C27.2185 8.43697 26.9798 8.14688 26.7627 7.82778ZM34.8651 13.8036H34.8145L34.583 13.8181C33.9753 13.8761 33.4906 14.304 33.3676 14.8914L33.2302 15.5876C30.416 15.2178 28.4411 13.5788 27.3415 10.7142L27.1896 10.7722H27.1968L27.3559 10.7069V9.46678V9.03165C28.2024 9.86565 28.8245 9.98168 29.0632 9.99619C29.2947 9.98894 29.9169 9.86565 30.7633 9.03165V9.46678V10.7069C30.7705 10.7069 31.465 10.8374 32.3114 11.0115C32.5791 11.0623 34.894 11.7222 35.1111 11.831L35.1472 11.8455H35.4366L34.8651 13.8036ZM36.0877 13.7456L35.0604 13.7963L35.6175 11.8455H36.0877V13.7456ZM36.0877 11.5264H35.7115L36.0877 10.2065V11.5264ZM39.4082 5.47082L39.2707 4.97767C39.2418 4.88339 39.2925 4.78911 39.3937 4.75285C39.4082 4.7456 39.4299 4.7456 39.4444 4.7456C39.4878 4.7456 39.5239 4.7601 39.5601 4.78911C39.5674 4.80361 39.5818 4.81812 39.5891 4.82537L39.6325 4.88339L39.7699 5.37654C39.7916 5.44181 39.7627 5.49982 39.741 5.52883C39.712 5.56509 39.6903 5.58685 39.6469 5.60136C39.5818 5.62311 39.5095 5.60136 39.4516 5.52883C39.4444 5.52158 39.4371 5.50708 39.4082 5.47082ZM39.5746 6.2323C39.5312 6.14527 39.495 6.02198 39.4661 5.8987C39.5095 5.9132 39.5529 5.92771 39.5963 5.92771C39.6469 5.92771 39.6976 5.92045 39.7482 5.90595C39.7771 5.8987 39.7989 5.87694 39.8278 5.86244V6.54414V6.58766C39.7265 6.50063 39.6614 6.40635 39.5746 6.2323ZM39.8278 8.0526V9.00989L39.9508 9.00264H39.958L39.8712 9.00989L39.5384 9.04615L39.8278 8.0526ZM39.0393 9.64808L38.5763 11.2508C38.5329 11.4031 38.3882 11.5119 38.2145 11.5119L36.84 11.5192L36.3047 9.64808H39.0393ZM36.2758 10.2065L36.652 11.5192H36.2758V10.2065ZM36.2758 13.7311V11.8382H36.746L37.2741 13.6876L36.2758 13.7311ZM40.3776 12.6287C40.3053 13.1509 39.8567 13.557 39.3069 13.586L37.4622 13.6731L36.9341 11.8382L38.2218 11.831C38.5256 11.831 38.8005 11.6279 38.8801 11.3451L39.3648 9.65533H40.7899L40.3776 12.6287Z" fill="#B57A51"></path><path d="M43.8219 19.4292C44.8639 19.4292 45.7828 19.0231 46.3327 18.4141H41.3184C41.861 19.0304 42.78 19.4292 43.8219 19.4292Z" fill="#B57A51"></path><path d="M15.7796 24.7996C15.6493 24.6256 15.3091 24.6473 15.0196 24.8649C14.7301 25.0751 14.6071 25.3942 14.7374 25.5682C14.817 25.6842 14.9907 25.6987 15.1716 25.6552L16.1921 27.1852C16.4382 26.8371 16.5902 26.6631 16.7711 26.5471L15.7289 25.2492C15.8375 25.0824 15.8664 24.9156 15.7796 24.7996Z" fill="#B57A51"></path><path d="M16.9215 26.7127C16.7117 26.8432 16.5381 27.0463 16.2993 27.3944L16.0606 27.7424L16.0027 27.844L16.01 27.8512C15.9883 27.8947 15.9738 27.9455 15.9738 27.9963C15.9593 28.1268 15.9955 28.2573 16.0823 28.3589C16.1402 28.4314 16.2198 28.4894 16.3066 28.5184C16.3066 28.5257 16.3066 28.5329 16.3066 28.5402C16.2849 28.7722 16.4223 28.9825 16.6321 29.055C16.6321 29.0695 16.6249 29.084 16.6249 29.0986C16.5959 29.3379 16.7479 29.5627 16.9794 29.6279V29.6352C16.9649 29.773 17.0083 29.9035 17.0951 30.0123C17.1819 30.1138 17.2977 30.1718 17.4207 30.1791C17.4351 30.1791 17.4424 30.1791 17.4568 30.1791C17.5147 30.1791 17.5653 30.1718 17.616 30.1573C17.7607 30.1138 17.8547 30.0123 17.9415 29.918C18.079 29.8092 18.202 29.7077 18.3177 29.6134C18.4334 29.5119 18.5203 29.4031 18.6071 29.2944C18.6722 29.2146 18.7301 29.1348 18.8096 29.0623C19.0701 28.8012 19.2364 28.3153 19.3811 27.3799C19.3884 27.3146 19.4028 27.2493 19.4173 27.1841C19.4318 27.1188 19.439 27.0463 19.4535 26.9737L24.9298 15.8421L24.6477 15.7043L19.1641 26.8577L19.1496 26.9012C19.1352 26.981 19.1279 27.0535 19.1135 27.126C19.099 27.1986 19.0918 27.2638 19.0773 27.3291C18.9471 28.1848 18.8024 28.6344 18.5998 28.8375C18.513 28.9173 18.4479 29.0115 18.3756 29.0986C18.296 29.2001 18.2237 29.2944 18.1296 29.3741C18.0211 29.4684 17.8981 29.5627 17.7679 29.6714L17.7245 29.715C17.6594 29.7802 17.6087 29.8382 17.5364 29.86C17.5075 29.8672 17.4858 29.8673 17.4568 29.8673C17.4134 29.8673 17.3772 29.8455 17.3483 29.8092C17.3194 29.773 17.2977 29.7222 17.3049 29.6714C17.3121 29.6352 17.3194 29.6062 17.3411 29.5772L17.6594 29.1856L17.1747 29.3234C17.153 29.3306 17.1313 29.3306 17.1096 29.3306C17.0155 29.3234 16.9432 29.2291 16.9504 29.1348C16.9577 29.084 16.9866 29.0478 17.0083 29.026L17.4785 28.5764L16.8564 28.7577C16.8347 28.765 16.813 28.765 16.7913 28.765C16.6972 28.7577 16.6249 28.6634 16.6321 28.5692C16.6394 28.5329 16.6466 28.5039 16.6755 28.4749L16.9721 28.1195L16.5164 28.2211C16.4947 28.2283 16.473 28.2283 16.4585 28.2283C16.4151 28.2211 16.3717 28.1993 16.3427 28.1631C16.3138 28.1268 16.2993 28.0833 16.3066 28.0325C16.3066 28.0035 16.321 27.9673 16.3427 27.9455L16.4151 27.844L16.4079 27.8367L16.5815 27.5829C16.8274 27.2276 16.9649 27.0825 17.1096 26.9955C17.276 26.894 17.5075 26.8577 17.927 26.7925L18.0934 26.7707L22.8536 13.8188C22.8536 13.8116 23.0344 13.3112 23.1791 13.0792C23.4178 12.6948 23.9025 12.2887 24.3728 12.0639L25.5519 11.5925C25.5302 11.4837 25.5158 11.3822 25.4941 11.2734L24.2498 11.7666C23.7144 12.0131 23.1791 12.47 22.9114 12.9051C22.7523 13.1662 22.5642 13.6883 22.557 13.7028L17.8258 26.4589C17.3845 26.5386 17.1385 26.5821 16.9215 26.7127Z" fill="#B57A51"></path><path d="M35.668 52.7255L35.6391 51.9206C35.6174 51.3622 35.4293 50.8255 35.1037 50.3832L19.9544 29.6718L21.792 28.3157L21.4882 27.9023C20.5621 27.9531 16.301 31.1729 15.9609 31.9706L16.2648 32.384L18.2254 30.9409L23.0364 37.5183L24.7799 39.897L25.337 40.6584L26.1979 41.8405L27.095 43.066L27.6014 43.755L28.3176 44.7485L29.3016 46.0901L29.9671 46.9965L30.8498 48.2004L32.3763 50.2962L32.6801 50.7095L33.1142 51.3042L33.5338 51.8118C33.8449 52.2324 34.2717 52.5587 34.7637 52.7328L35.668 52.7255C35.6608 52.7255 35.6752 52.6893 35.668 52.7255ZM19.108 30.1939L19.6578 29.7878L34.8505 50.5645C35.1399 50.9633 35.3063 51.4347 35.328 51.9278L35.3425 52.3847L19.108 30.1939Z" fill="#B57A51"></path><path d="M32.9008 18.1895L33.0238 17.5585C32.9297 17.6093 32.8357 17.6528 32.7344 17.6891C31.9384 17.9864 31.034 17.7471 30.2815 17.3555L30.2598 17.3627C30.3611 17.6165 30.5926 17.8051 30.8531 17.9211C31.1136 18.0372 31.403 18.0879 31.6852 18.1315C31.8082 18.1532 31.9457 18.175 32.0759 18.1822C32.4088 18.4796 32.4884 18.9727 32.4449 19.4151C32.4015 19.8792 32.2423 20.3216 32.2206 20.7785C32.1989 21.1846 32.2713 21.5908 32.2568 21.9896C32.2496 22.3957 32.1338 22.8236 31.8227 23.092C31.9963 22.9904 32.2423 23.0702 32.3798 23.2225C32.5173 23.3675 32.5824 23.5706 32.6331 23.7664C33.0962 25.9058 33.7618 26.5875 30.4624 32.5706C31.2945 31.4973 32.1266 30.4239 32.9587 29.3506C33.1396 29.1113 33.3711 28.8575 33.6678 28.843C34.1743 28.8212 34.3986 29.5174 34.1815 29.9525C33.9644 30.3877 33.5086 30.6705 33.183 31.0476C32.9008 31.3885 31.6852 33.3031 31.5984 33.7309C34.2539 30.9969 34.6518 32.6286 34.7459 33.4771C34.8689 34.652 34.8617 35.1524 34.934 36.4723C34.9557 36.7624 35.0715 38.0315 34.934 38.2998C34.811 38.5391 34.5216 38.9308 34.3335 39.1338C33.4652 40.1056 32.8501 41.9332 32.4956 43.166C32.539 43.1225 31.924 44.2249 31.4754 44.9138L32.2785 46.0089C32.9732 44.4207 33.8921 42.7527 34.7025 41.6286L34.2683 48.6632C35.8819 46.5021 36.4246 43.3909 35.7082 39.1338C35.8964 38.6262 34.6663 28.7632 32.9442 23.7519C32.4811 22.4103 32.3726 20.9671 32.6403 19.5674L32.9008 18.1895Z" fill="#B57A51"></path><path d="M25.3027 36.4379L25.8309 37.1558C26.0552 36.7135 26.2651 36.3292 26.4243 36.1406C27.5747 34.8209 29.7455 31.935 30.2809 30.2891C29.608 31.1737 27.0176 33.9581 26.3447 34.85C25.9974 35.3068 25.6573 35.8796 25.3027 36.4379Z" fill="#B57A51"></path><path d="M26.6777 38.331L27.4952 39.4477C28.0957 38.0338 28.0595 36.7141 29.615 35.0898C28.0234 36.0252 27.3578 37.1926 26.6777 38.331Z" fill="#B57A51"></path><path d="M22.7785 37.7109C22.2793 42.9105 22.2793 47.3414 22.3444 50.0754C22.3517 50.2712 22.3517 50.4525 22.3589 50.6338C22.3806 51.5185 22.4095 52.1784 22.4168 52.57C22.8508 52.599 23.2704 52.599 23.6611 52.5845C23.7117 52.5845 23.7623 52.5773 23.813 52.57C27.2203 52.512 30.0055 51.9101 32.0455 50.6483C32.0528 50.5685 32.0673 50.496 32.0817 50.4162L29.4919 46.8701C28.8263 47.3052 28.754 46.9208 28.9782 46.1666L27.8207 44.5785C26.4607 45.2892 24.6594 45.485 23.813 46.7395C23.936 45.6735 24.9053 44.9048 25.8675 44.3754C26.345 44.1143 26.7501 43.8895 27.1263 43.6357L26.6416 42.9758C26.4535 43.1353 26.2581 43.2949 26.0339 43.4399C25.0573 44.0926 24.9632 43.817 23.9866 44.4552C23.9721 43.759 25.1875 42.2216 25.5998 41.8808C25.6505 41.8373 25.6939 41.7937 25.7445 41.7502L24.8764 40.5609C24.5002 40.8655 24.0589 41.1411 23.5091 41.3876C23.7768 40.5899 24.0662 40.2346 24.3628 39.8575L22.7785 37.7109Z" fill="#B57A51"></path><path d="M29.6113 42.3342L30.1976 43.1391C30.2482 43.0158 30.3061 42.8925 30.3568 42.7765C30.7693 41.8339 30.82 40.7462 31.3845 39.8906C30.6173 40.1299 30.1469 40.8768 29.8719 41.6091C29.7778 41.8412 29.6982 42.0877 29.6113 42.3342Z" fill="#B57A51"></path><path d="M28.8311 39.5418C28.7081 39.9769 28.5707 40.3467 28.4043 40.6875L28.9107 41.3763C29.6558 39.6361 30.0175 37.294 31.0303 35.9961C30.0392 36.5617 29.135 38.4759 28.8311 39.5418Z" fill="#B57A51"></path><path d="M33.6013 57.77C29.4183 54.2629 24.567 51.5073 19.2749 50.111C19.2008 50.0327 19.1095 50.0168 19.0089 50.0393C18.5192 49.784 17.9746 49.7097 17.4491 49.5796C15.0112 49.0722 16.9343 46.105 16.7629 44.442C16.8397 43.8231 15.5969 43.6454 15.1515 43.25C14.3197 45.8616 13.5329 48.373 12.6289 50.964C20.3066 51.8788 27.4615 54.1488 34.0162 58.2741C33.9924 58.0201 33.7541 57.9431 33.6013 57.77Z" fill="#B57A51"></path><path d="M32.955 59.3478C9.90057 46.3449 8.63337 59.5653 13.2436 43.8984C11.1479 47.7074 9.05687 51.5064 6.94531 55.3445C15.7522 54.9969 24.7172 55.9673 32.8954 59.4101C32.9894 59.4632 33.0648 59.3929 32.955 59.3478Z" fill="#B57A51"></path><path d="M29.2971 59.7342C29.2971 59.7342 27.8453 59.3143 27.8274 59.3103L26.8401 59.0257L26.8434 59.0277C4.77631 52.5999 0.831785 63.4469 8.97891 48.4865L9.74055 47.1445L9.16221 47.8934H9.16155C6.10704 51.8583 3.07172 55.7554 0 59.7335C9.38058 57.293 18.7089 57.6685 28.0842 59.5206C28.0828 59.5172 29.2971 59.7342 29.2971 59.7342Z" fill="#B57A51"></path></svg>