<svg width="150" height="38" viewBox="0 0 150 38" fill="none" xmlns="http://www.w3.org/2000/svg">
<path d="M31.9454 1.42585C28.27 1.39296 24.7987 3.25039 24.7987 3.25039C24.7987 3.25039 21.3016 5.36844 20.0242 8.54211C19.9582 8.85036 13.0299 22.2874 13.0299 22.2874C4.24791 19.7479 0.0020547 24.8936 0.135879 26.8796C2.25756 32.2022 12.6326 28.4159 13.6684 27.1836C14.2418 26.876 14.6113 27.2444 14.6113 27.2444C14.6113 27.2444 17.1522 28.936 17.4393 29.0691C17.7263 29.2023 19.1729 29.0083 19.1729 29.0083C20.2979 28.9228 22.3053 26.7181 22.5485 26.697C22.9236 26.6982 23.3761 29.1395 24.9205 29.0995C26.7737 29.4577 28.7826 27.3662 28.7826 27.3662C29.0471 26.9919 29.1476 27.2748 29.1476 27.2748C29.1049 29.5688 30.968 29.1642 31.5194 29.0995C33.3503 28.3544 37.8348 23.9362 37.3281 25.2375C37.1518 25.5899 35.7771 28.1566 35.7771 28.1566C35.6231 28.8405 36.1116 28.7954 36.1116 28.7954L39.335 28.765C39.8862 28.4354 42.7064 22.3621 42.3762 23.1999C43.3926 21.3604 45.6909 20.7063 45.6909 20.7063C45.9116 20.6405 45.8125 20.9494 45.8125 20.9494L42.0416 28.4304C41.9759 28.6284 42.3456 28.8258 42.3456 28.8258L45.6299 28.765C46.0713 28.7223 48.8231 23.0781 48.8231 23.0781C49.5721 21.646 52.2293 20.8278 52.2293 20.8278C52.7142 20.7407 52.3812 21.2232 52.3812 21.2232L49.7964 26.6363C49.4035 29.0939 51.4685 29.2379 52.3509 29.1299C53.2332 29.0002 54.668 28.5032 57.4901 26.3929C58.064 25.9538 58.1897 26.3956 58.1897 26.4843C58.2139 29.5064 61.5348 29.1603 61.5348 29.1603C62.5276 29.4057 66.5575 29.3107 69.9281 22.5916C68.6958 27.1545 71.2082 28.3971 71.2967 28.5522C71.3852 28.7065 72.7359 29.1782 73.2428 29.0691C78.3835 29.5248 80.5415 21.5274 80.5415 21.5274C81.6982 20.6595 81.992 20.4105 82.4574 20.1587C83.6049 20.2717 83.9129 20.3041 84.4645 20.3717C84.9055 20.5275 84.5058 20.9392 84.3731 21.071C79.1256 25.1601 81.429 28.3134 81.6059 28.248C83.9023 31.3648 88.6691 25.9318 89.5734 25.8456C90.7239 30.4378 94.2237 28.4386 94.3784 28.4608C94.0699 29.3645 93.1724 31.5991 92.4017 33.0528C90.7926 35.321 88.2658 32.7792 88.2658 32.7792L87.6271 32.7488C87.3186 33.1449 87.5055 33.6003 87.5055 33.6003C88.1678 34.6612 89.0159 36.1292 91.6414 36.4893C94.2886 36.6071 95.8076 33.6915 95.8076 33.6915C95.8076 33.6915 99.5188 26.8438 99.7611 26.0279C100.885 25.0163 102.837 23.5556 104.292 22.5004C105.24 22.3047 101.919 27.72 101.677 28.4912C101.611 28.9326 101.768 28.9476 101.768 28.9476C101.768 28.9476 104.294 29.073 104.779 29.0083C105.264 28.9435 107.621 23.3442 108.459 22.2877C109.186 21.0762 111.53 19.946 111.53 19.946C112.037 19.8371 111.864 20.4325 111.864 20.4325L108.763 26.6973C108.014 29.3198 110.121 29.3334 110.496 29.3125C111.511 29.2486 115.301 27.062 115.301 27.062C115.83 26.6662 115.818 27.3054 115.818 27.3054C115.774 28.1437 116.68 29.5171 117.429 29.3427C120.121 29.5926 124.192 25.1216 124.302 25.5414C124.325 25.6299 122.782 28.6738 122.782 28.6738C122.848 28.9165 123.116 29.0387 123.116 29.0387C123.116 29.0387 125.722 29.0673 126.34 29.0691C126.958 29.071 129.767 22.3568 130.385 21.9833C131.641 20.6854 133.016 20.5622 133.061 20.5845C133.524 20.5641 130.439 25.4922 130.263 26.4841C129.581 29.3284 131.601 29.2819 131.601 29.2819C133.211 29.5294 137.16 26.7279 137.227 26.9706C137.69 26.509 137.744 27.062 137.744 27.062V27.2748C138.011 29.5702 139.356 29.3123 139.356 29.3123C140.9 29.7138 146.928 24.6595 146.928 24.6595L146.016 23.6561L142.245 26.3929C141.936 26.5469 141.758 26.2105 141.758 26.2105L145.985 18.0604C146.184 17.8626 145.894 17.6347 145.894 17.6347H142.093C141.828 17.9205 141.667 18.1212 141.667 18.1212L138.231 24.8117L134.46 26.6667C134.063 26.7755 134.156 26.3627 134.156 26.3627C134.156 26.3627 137.297 20.1973 137.562 19.3376C137.738 18.9411 137.653 18.3038 137.653 18.3038C136.614 15.8959 132.418 19.0131 131.844 19.0337C131.822 19.0557 132.362 17.9388 132.362 17.9388C132.516 17.6081 132.21 17.6043 132.21 17.6043L128.682 17.5739C128.682 17.5739 128.692 17.3232 128.56 17.5435C128.428 17.7637 126.158 22.0139 126.158 22.0139L120.471 26.3017C119.986 26.389 120.106 26.0585 120.106 26.0585L124.272 17.9996L124.303 17.6651L120.288 17.5739L116.974 23.96C116.797 24.1582 113.324 26.1193 113.324 26.1193C112.795 26.2727 112.777 25.8152 112.777 25.8152L115.849 19.8548C116.544 17.5294 114.004 16.8458 112.747 17.3001C111.897 17.6063 111.104 17.878 111.104 17.878C111.104 17.878 110.853 17.9434 111.074 17.6347C111.448 17.1062 115.331 9.42376 115.331 9.42376C115.42 9.20307 115.21 9.05881 115.21 9.05881L111.682 9.02842C111.395 9.15952 111.348 9.36298 111.348 9.36298L106.33 18.8815L102.194 21.9835C101.929 22.1593 101.92 21.8617 101.92 21.8617L103.988 17.9388V17.5433L100.278 17.5129L99.6697 17.9994C99.2501 17.1157 97.1209 17.1261 97.0544 17.1479C92.5981 17.0027 90.0904 23.3213 90.0904 23.3213C87.6108 25.4709 86.4651 26.1398 85.6506 26.2711C84.9728 26.3092 84.7685 25.7539 84.7685 25.7539C83.8245 22.8615 89.7558 20.1281 89.7558 20.1281C89.9545 20.0181 90.8092 17.4523 90.6987 17.4521C90.5882 17.4518 83.4055 17.4437 83.3393 17.4217C82.9419 17.2663 81.0234 19.0718 80.4503 19.4896C78.7702 14.5653 72.2607 18.2897 71.3575 20.4931C70.9696 20.5965 70.7957 20.5244 70.5972 20.5234C70.6625 18.8472 70.44 17.8021 69.3808 17.2695C68.8069 16.9592 66.4616 17.2695 66.4616 17.2695L70.4452 9.33236C70.6435 9.09011 70.2626 8.84583 70.2626 8.84583H66.6743C66.5199 8.93383 66.3398 9.14976 66.3398 9.14976C66.3398 9.14976 59.5594 22.2822 59.1627 22.9869C58.7662 23.6917 53.8104 26.3321 53.8104 26.3321C53.854 25.8472 57.046 20.2969 57.1558 19.2161C57.2858 16.4148 54.0842 17.3001 54.0842 17.3001C54.0842 17.3001 52.2712 18.5036 50.6175 19.3376C50.2621 16.2699 47.5763 17.3305 47.5763 17.3305L44.5353 19.3072L45.0826 17.878L45.2044 17.3305L41.5549 17.2393C41.1364 17.5471 40.3995 19.2161 40.3995 19.2161L39.2438 21.3448L34.0437 25.2679C33.5365 25.553 33.8003 24.8725 33.8003 24.8725C33.8003 24.8725 37.3113 17.9862 37.3886 17.9386C37.6753 17.7628 37.4497 17.3307 37.4497 17.3307L33.9219 17.3001C33.9219 17.3001 33.3245 18.3151 33.1922 18.4254C31.5138 16.0596 25.975 17.0198 23.0046 24.021C22.6249 24.489 22.3312 24.8165 22.1227 24.9029C18.6399 28.9743 16.6486 24.9333 16.6486 24.9333L22.883 13.0427C22.883 13.0427 25.7194 6.6967 27.5054 4.89257C32.0257 1.83889 33.3138 4.71021 33.3138 4.71021C33.7044 5.61522 34.8954 8.88234 28.7522 10.4578C27.9463 10.5375 28.2047 10.9137 28.2047 10.9137C29.9927 12.4412 32.1886 12.2824 32.1886 12.2824C34.3508 12.7074 40.2101 9.48319 38.0882 4.31486C36.4324 2.15099 34.1506 1.44558 31.9454 1.42585ZM124.728 9.48478C121.507 9.60794 121.319 13.9305 124.607 14.3807C127.805 14.4782 128.413 9.62767 124.728 9.48455V9.48478ZM146.654 9.48478C143.169 9.49703 143.428 14.4156 146.715 14.3807C150.002 14.1255 149.721 9.60341 146.654 9.48455V9.48478ZM31.5804 18.6989C32.6113 18.7225 32.431 19.9578 32.2496 20.1891C32.36 20.5643 30.4552 23.7774 30.4552 23.7774C28.2512 26.529 27.2012 26.0277 27.2012 26.0277C27.2012 26.0277 26.4459 25.9229 27.0189 24.4465C27.6358 23.4113 28.8339 20.7176 30.0902 19.1548C30.7519 18.8148 31.2366 18.691 31.5804 18.6989ZM66.1572 19.0028C67.2384 19.1385 66.7047 20.1281 66.7047 20.1281L63.7243 25.9973C62.7766 27.1643 61.8998 26.7576 61.8998 26.7576C61.4144 26.4029 62.2343 25.0546 62.2343 25.0546L65.0322 19.5808C65.5829 19.0085 66.1572 19.0028 66.1572 19.0028ZM97.176 19.0335C98.0198 18.8838 98.3623 19.5808 98.3623 19.5808C98.3623 19.5808 98.4113 19.6928 98.3013 20.3107C98.0595 21.2588 95.4427 25.7845 95.4427 25.7845C94.3408 26.8846 93.3747 26.6664 93.3747 26.6664C92.8233 26.5104 93.0402 25.6934 93.0402 25.6934C93.0402 25.6934 95.1591 21.3482 96.1726 19.52C96.5695 19.2288 96.8948 19.0831 97.176 19.0335ZM76.8921 19.0639C77.3583 18.9852 77.8008 19.1773 77.7132 20.1585C77.163 21.3262 74.9914 25.6158 74.5507 26.2101C74.4627 26.7177 72.245 27.5447 72.8171 25.6934C72.8171 25.6934 75.9277 19.8757 75.9495 19.6112C75.9604 19.4787 76.4263 19.1423 76.8921 19.0639ZM6.85657 23.8387C8.67476 23.7951 10.3233 24.3857 10.3233 24.3857C10.3233 24.3857 9.898 25.8034 5.88328 26.4537C3.98616 26.3387 2.99495 26.3471 2.99427 25.6632C3.91992 24.2857 5.44234 23.8725 6.85657 23.8387Z" fill="white"/>
</svg>
