<svg width="150" height="36" viewBox="0 0 150 36" fill="none" xmlns="http://www.w3.org/2000/svg">
<g clip-path="url(#clip0_3_1381)">
<path d="M95.3315 22.3277C92.7197 22.3277 90.5943 20.2017 90.5943 17.5904C90.5943 14.9786 92.7197 12.8531 95.3315 12.8531C97.9434 12.8531 100.068 14.9786 100.068 17.5904C100.068 20.2278 97.9173 22.3277 95.3315 22.3277ZM95.3315 10.0361C91.1578 10.0361 87.7777 13.4167 87.7777 17.5904C87.7777 21.7642 91.1578 25.1442 95.3315 25.1442C99.5053 25.1442 102.885 21.7642 102.885 17.5904C102.885 13.4422 99.5053 10.0361 95.3315 10.0361ZM86.0877 22.7115H86.7023V25.5535H86.0877C82.8358 25.5535 80.1724 22.8906 80.1724 19.6387V6.65604H83.015V10.446H86.6762V13.2885H83.015V19.6642C83.015 21.3287 84.3977 22.7115 86.0877 22.7115ZM120.707 22.3277C118.095 22.3277 115.97 20.2017 115.97 17.5904C115.97 14.9786 118.095 12.8531 120.707 12.8531C123.319 12.8531 125.444 14.9786 125.444 17.5904C125.418 20.2278 123.293 22.3277 120.707 22.3277ZM120.707 10.0361C116.533 10.0361 113.153 13.4167 113.153 17.5904C113.153 21.7642 116.533 25.1442 120.707 25.1442C124.88 25.1442 128.261 21.7642 128.261 17.5904C128.261 13.4422 124.88 10.0361 120.707 10.0361ZM142.447 22.3277C139.834 22.3277 137.71 20.2017 137.71 17.5904C137.71 14.9786 139.834 12.8531 142.446 12.8531C145.058 12.8531 147.183 14.9786 147.183 17.5904C147.183 20.2278 145.033 22.3271 142.446 22.3271M142.446 10.0361C138.272 10.0361 134.892 13.4167 134.892 17.5904C134.892 21.7642 138.272 25.1442 142.446 25.1442C144.29 25.1442 145.98 24.478 147.286 23.3771V24.8624H150V17.8206V17.5898C150 13.4416 146.62 10.0361 142.446 10.0361ZM110.695 10.0366H112.052V12.8787H110.695C109.005 12.8787 107.622 14.262 107.622 15.9514V24.965H104.78V15.9514C104.78 12.6995 107.443 10.0366 110.695 10.0366ZM130.156 6.27222H132.998V24.9134H130.156V6.27222ZM61.2755 16.3352V25.3233H58.4329V16.3352C58.4329 14.6452 57.0501 13.2625 55.3601 13.2625C53.6707 13.2625 52.2874 14.6452 52.2874 16.3352V25.3228H49.4454V16.3352C49.4454 14.6452 48.062 13.2625 46.3726 13.2625C44.6831 13.2625 43.2998 14.6452 43.2998 16.3352V25.3228H40.4578V16.3352C40.4578 13.0828 43.1207 10.4199 46.3471 10.4199C48.1652 10.4199 49.7526 11.2136 50.8536 12.4943C51.9546 11.2136 53.542 10.4199 55.3607 10.4199C58.612 10.4199 61.2755 13.0828 61.2755 16.3352ZM70.7494 22.7115C68.1376 22.7115 66.0122 20.5861 66.0122 17.9742C66.0122 15.3624 68.1382 13.237 70.7494 13.237C73.3613 13.237 75.4867 15.3629 75.4867 17.9742C75.4867 20.5861 73.3358 22.7115 70.7494 22.7115ZM70.7494 10.4205C66.5502 10.4205 63.1696 13.8005 63.1696 17.9742C63.1696 22.148 66.5502 25.528 70.7239 25.528C74.8977 25.528 78.2777 22.148 78.2777 17.9742C78.3032 13.826 74.9232 10.4205 70.7494 10.4205ZM17.1814 0.818359C7.6819 0.818359 0 8.50026 0 17.9997C0 27.4992 7.6819 35.1817 17.1814 35.1817C26.6814 35.1817 34.3633 27.4998 34.3633 17.9997C34.3633 8.55128 26.7835 0.818359 17.1814 0.818359Z" fill="white"/>
</g>
<defs>
<clipPath id="clip0_3_1381">
<rect width="150" height="34.38" fill="white" transform="translate(0 0.810059)"/>
</clipPath>
</defs>
</svg>
